<svg width="16" height="18" viewBox="0 0 16 18" fill="none" xmlns="http://www.w3.org/2000/svg">
<path d="M15.1875 5.05469H12.3047C12.5703 4.63672 12.7266 4.14062 12.7266 3.60938C12.7266 2.12305 11.5176 0.914062 10.0312 0.914062C9.22266 0.914062 8.49414 1.27344 8 1.83984C7.50586 1.27344 6.77734 0.914062 5.96875 0.914062C4.48242 0.914062 3.27344 2.12305 3.27344 3.60938C3.27344 4.14062 3.42773 4.63672 3.69531 5.05469H0.8125C0.466797 5.05469 0.1875 5.33398 0.1875 5.67969V9.58594C0.1875 9.67188 0.257812 9.74219 0.34375 9.74219H1.125V16.4609C1.125 16.8066 1.4043 17.0859 1.75 17.0859H14.25C14.5957 17.0859 14.875 16.8066 14.875 16.4609V9.74219H15.6562C15.7422 9.74219 15.8125 9.67188 15.8125 9.58594V5.67969C15.8125 5.33398 15.5332 5.05469 15.1875 5.05469ZM8.66406 3.60938C8.66406 2.85547 9.27734 2.24219 10.0312 2.24219C10.7852 2.24219 11.3984 2.85547 11.3984 3.60938C11.3984 4.36328 10.7852 4.97656 10.0312 4.97656H8.66406V3.60938ZM5.96875 2.24219C6.72266 2.24219 7.33594 2.85547 7.33594 3.60938V4.97656H5.96875C5.21484 4.97656 4.60156 4.36328 4.60156 3.60938C4.60156 2.85547 5.21484 2.24219 5.96875 2.24219ZM1.51562 8.41406V6.38281H7.33594V8.41406H1.51562ZM2.45312 9.74219H7.33594V15.7578H2.45312V9.74219ZM13.5469 15.7578H8.66406V9.74219H13.5469V15.7578ZM14.4844 8.41406H8.66406V6.38281H14.4844V8.41406Z" fill="#595959"/>
</svg>
