<svg width="20" height="20" viewBox="0 0 20 20" fill="none" xmlns="http://www.w3.org/2000/svg">
<path d="M5.0332 14.6875C5.07227 14.6875 5.11133 14.6836 5.15039 14.6777L8.43555 14.1016C8.47461 14.0938 8.51172 14.0762 8.53906 14.0469L16.8184 5.76758C16.8945 5.69141 16.8945 5.56836 16.8184 5.49219L13.5723 2.24414C13.5352 2.20703 13.4863 2.1875 13.4336 2.1875C13.3809 2.1875 13.332 2.20703 13.2949 2.24414L5.01562 10.5234C4.98633 10.5527 4.96875 10.5879 4.96094 10.627L4.38477 13.9121C4.34766 14.1289 4.41406 14.3398 4.56836 14.4941C4.69727 14.6191 4.85938 14.6875 5.0332 14.6875ZM6.34961 11.2812L13.4336 4.19922L14.8652 5.63086L7.78125 12.7129L6.04492 13.0195L6.34961 11.2812ZM17.1875 16.3281H2.8125C2.4668 16.3281 2.1875 16.6074 2.1875 16.9531V17.6562C2.1875 17.7422 2.25781 17.8125 2.34375 17.8125H17.6562C17.7422 17.8125 17.8125 17.7422 17.8125 17.6562V16.9531C17.8125 16.6074 17.5332 16.3281 17.1875 16.3281Z" fill="#595959"/>
</svg>
