<svg width="20" height="20" viewBox="0 0 20 20" fill="none" xmlns="http://www.w3.org/2000/svg">
<path d="M16.6914 5.64648C16.3242 4.79883 15.7988 4.03906 15.1309 3.38672C14.4629 2.73437 13.6875 2.22461 12.8223 1.86719C11.9277 1.49609 10.9785 1.30859 10 1.30859C9.02148 1.30859 8.07227 1.49609 7.17773 1.86523C6.3125 2.22266 5.53711 2.73438 4.86914 3.38477C4.20117 4.03711 3.67578 4.79883 3.30859 5.64453C2.92773 6.52344 2.73438 7.45703 2.73438 8.41797C2.73438 9.79688 3.06445 11.1699 3.71289 12.4941C4.23438 13.5586 4.96289 14.5957 5.88086 15.582C7.44922 17.2656 9.09375 18.2949 9.56055 18.5703C9.69531 18.6504 9.84766 18.6895 9.99805 18.6895C10.1504 18.6895 10.3008 18.6504 10.4355 18.5703C10.9023 18.2949 12.5469 17.2656 14.1152 15.582C15.0332 14.5977 15.7617 13.5586 16.2832 12.4941C16.9355 11.1719 17.2656 9.80078 17.2656 8.41992C17.2656 7.45898 17.0723 6.52539 16.6914 5.64648ZM10 17.1914C8.71289 16.373 4.14062 13.1328 4.14062 8.41992C4.14062 6.89844 4.74805 5.46875 5.85156 4.39062C6.95898 3.31055 8.43164 2.71484 10 2.71484C11.5684 2.71484 13.041 3.31055 14.1484 4.39258C15.252 5.46875 15.8594 6.89844 15.8594 8.41992C15.8594 13.1328 11.2871 16.373 10 17.1914ZM10 5.13672C8.10156 5.13672 6.5625 6.67578 6.5625 8.57422C6.5625 10.4727 8.10156 12.0117 10 12.0117C11.8984 12.0117 13.4375 10.4727 13.4375 8.57422C13.4375 6.67578 11.8984 5.13672 10 5.13672ZM11.5469 10.1211C11.1328 10.5332 10.584 10.7617 10 10.7617C9.41602 10.7617 8.86719 10.5332 8.45312 10.1211C8.04102 9.70703 7.8125 9.1582 7.8125 8.57422C7.8125 7.99023 8.04102 7.44141 8.45312 7.02734C8.86719 6.61328 9.41602 6.38672 10 6.38672C10.584 6.38672 11.1328 6.61328 11.5469 7.02734C11.9609 7.44141 12.1875 7.99023 12.1875 8.57422C12.1875 9.1582 11.9609 9.70703 11.5469 10.1211Z" fill="#595959"/>
</svg>
