<svg width="20" height="20" viewBox="0 0 20 20" fill="none" xmlns="http://www.w3.org/2000/svg">
<path d="M16.7676 14.9141C16.3985 14.0391 15.8672 13.2539 15.1934 12.5801C14.5196 11.9062 13.7344 11.377 12.8594 11.0059C12.8516 11.002 12.8438 11 12.836 10.9961C14.0528 10.1172 14.8438 8.68555 14.8438 7.07031C14.8438 4.39453 12.6758 2.22656 10 2.22656C7.32426 2.22656 5.15629 4.39453 5.15629 7.07031C5.15629 8.68555 5.9473 10.1172 7.1641 10.998C7.15629 11.002 7.14848 11.0039 7.14066 11.0078C6.26566 11.377 5.48051 11.9062 4.80668 12.582C4.13285 13.2559 3.60356 14.041 3.23246 14.916C2.86918 15.7715 2.67582 16.6797 2.65629 17.6133C2.65434 17.7012 2.72465 17.7734 2.81254 17.7734H3.98441C4.07035 17.7734 4.13871 17.7051 4.14066 17.6211C4.17973 16.1133 4.7852 14.7012 5.85551 13.6309C6.96293 12.5234 8.43363 11.9141 10 11.9141C11.5664 11.9141 13.0371 12.5234 14.1446 13.6309C15.2149 14.7012 15.8204 16.1133 15.8594 17.6211C15.8614 17.707 15.9297 17.7734 16.0157 17.7734H17.1875C17.2754 17.7734 17.3457 17.7012 17.3438 17.6133C17.3243 16.6797 17.1309 15.7715 16.7676 14.9141ZM10 10.4297C9.10356 10.4297 8.25981 10.0801 7.62504 9.44531C6.99027 8.81055 6.64066 7.9668 6.64066 7.07031C6.64066 6.17383 6.99027 5.33008 7.62504 4.69531C8.25981 4.06055 9.10356 3.71094 10 3.71094C10.8965 3.71094 11.7403 4.06055 12.375 4.69531C13.0098 5.33008 13.3594 6.17383 13.3594 7.07031C13.3594 7.9668 13.0098 8.81055 12.375 9.44531C11.7403 10.0801 10.8965 10.4297 10 10.4297Z" fill="#FF6440"/>
</svg>
