<svg width="227" height="240" viewBox="0 0 227 240" fill="none" xmlns="http://www.w3.org/2000/svg">
<g clip-path="url(#clip0)">
<path d="M205.947 2.09914H203.503V169.329H205.947V2.09914Z" fill="url(#paint0_linear)"/>
<path d="M97.3887 0H94.9453V167.23H97.3887V0Z" fill="url(#paint1_linear)"/>
<path d="M226.891 160.233H0V190.671H226.891V160.233Z" fill="url(#paint2_linear)"/>
<path d="M182.916 209.233C182.916 209.233 182.421 213.401 186.679 218.563C190.938 223.724 190.443 231.069 189.452 233.153C188.462 235.237 187.274 235.932 185.491 236.428C183.708 236.924 183.411 238.016 183.411 238.016L193.413 238.612C193.413 238.612 194.107 238.413 194.701 235.535C195.295 232.656 195.889 223.426 194.701 220.547C193.513 217.669 191.532 209.034 191.532 209.034C191.532 209.034 184.401 205.56 182.916 209.233Z" fill="url(#paint3_linear)"/>
<path d="M154.297 209.034C154.297 209.034 154.099 222.136 153.01 226.602C151.92 231.069 151.623 231.267 149.742 232.26C147.86 233.252 146.87 233.748 146.969 234.741C146.969 234.741 154.198 235.932 155.485 235.138C156.772 234.344 161.922 218.563 162.021 214.791C162.12 211.019 154.297 209.034 154.297 209.034Z" fill="url(#paint4_linear)"/>
<path d="M134.427 184.951C135.026 184.79 135.617 184.566 136.189 184.35C136.562 184.209 136.935 184.067 137.311 183.943C138.082 183.688 138.886 183.496 139.691 183.305C140.161 183.192 140.632 183.079 141.095 182.955C142.341 182.62 143.775 182.143 144.956 181.147C145.766 180.465 146.379 179.603 146.987 178.706C147.9 177.361 148.92 175.78 149.475 174.042C150.086 172.13 150.041 170.245 149.348 168.737C148.987 167.952 148.423 167.528 147.84 167.601C147.509 167.642 147.24 167.84 147.02 168.016C146.276 168.607 145.591 169.281 144.93 169.934C144.573 170.286 144.216 170.637 143.849 170.978C141.269 173.37 138.168 175.196 135.169 176.963C134.109 177.587 133.013 178.233 131.954 178.895C130.761 179.641 129.188 180.826 129.299 182.504C129.407 184.164 131.238 185.234 132.88 185.193C133.362 185.181 133.868 185.101 134.427 184.951ZM138.163 183.155C137.821 183.247 137.482 183.346 137.15 183.456C136.768 183.583 136.388 183.726 136.009 183.87C135.448 184.082 134.869 184.301 134.295 184.455C133.775 184.595 133.307 184.668 132.866 184.68C131.461 184.715 129.896 183.836 129.807 182.471C129.716 181.068 131.143 180.007 132.224 179.331C133.276 178.673 134.37 178.028 135.426 177.406C138.449 175.625 141.574 173.784 144.194 171.355C144.565 171.011 144.926 170.656 145.286 170.3C145.938 169.657 146.613 168.993 147.336 168.418C147.512 168.277 147.699 168.136 147.903 168.11C148.317 168.058 148.681 168.511 148.884 168.952C149.523 170.343 149.561 172.095 148.989 173.885C148.454 175.557 147.498 177.041 146.565 178.417C145.978 179.283 145.388 180.113 144.628 180.754C143.523 181.686 142.155 182.139 140.962 182.46C140.503 182.583 140.037 182.694 139.571 182.806C139.1 182.918 138.628 183.03 138.163 183.155Z" fill="#DEEAFE"/>
<path d="M149.089 175.645C149.101 175.891 148.996 176.127 148.894 176.353C148.159 177.974 147.371 179.663 145.95 180.755C145.228 181.311 144.379 181.68 143.525 182.003C141.801 182.653 140.014 183.136 138.198 183.442C137.24 181.2 135.821 179.156 134.052 177.468C136.772 176.732 144.528 170.499 145.3 169.721C146.564 171.403 147.738 173.15 148.817 174.954C148.947 175.167 149.078 175.394 149.089 175.645Z" fill="#DEEAFE"/>
<path d="M225.746 216.38C228.219 213.813 225.039 210.272 225.039 210.272C218.867 212.031 214.028 211.211 210.331 209.374C214.84 211.086 219.812 211.122 224.345 209.474C224.502 209.417 224.434 209.164 224.275 209.222C219.001 211.145 213.162 210.747 208.196 208.125C202.651 204.372 200.351 198.57 200.351 198.57L202.692 205.314C205.727 211.969 209.67 215.471 213.455 217.113C216.616 218.975 220.118 219.944 223.841 218.465C223.996 218.404 223.929 218.15 223.772 218.212C220.746 219.414 217.877 218.974 215.223 217.754C220.108 219.189 224.429 217.747 225.746 216.38Z" fill="#23286B"/>
<path d="M159.221 182.041C159.221 182.041 162.178 191.543 169.62 192.974C177.062 194.404 190.824 192.974 194.698 194.609C198.572 196.243 202.446 198.185 202.955 207.891C203.465 217.597 206.829 219.948 207.237 223.421C207.644 226.895 206.319 238.543 203.159 239.667L194.698 239.054C195.709 238.143 196.938 237.51 198.266 237.215C200.509 236.704 204.179 231.391 200.814 225.976C197.45 220.561 192.761 221.48 190.314 214.941C187.868 208.402 186.338 208.913 184.3 210.139C182.261 211.365 173.799 215.35 168.091 214.226C162.382 213.102 165.338 224.852 166.46 229.143C167.581 233.435 166.46 236.295 165.746 236.5L156.877 235.785C157.606 234.971 158.567 234.4 159.63 234.15C161.261 233.843 161.872 232.617 160.751 229.348C159.63 226.078 151.882 201.863 150.862 196.346C149.843 190.828 148.008 184.8 144.95 183.267C141.891 181.735 138.12 178.261 138.833 173.867C139.547 169.474 143.726 176.728 148.11 176.422C152.493 176.115 157.081 174.48 159.221 182.041Z" fill="url(#paint5_linear)"/>
<path d="M146.539 190.363C147.932 189.725 148.682 188.376 148.215 187.349C147.747 186.323 146.238 186.007 144.845 186.645C143.452 187.283 142.702 188.632 143.169 189.659C143.637 190.685 145.146 191.001 146.539 190.363Z" fill="#F1B505"/>
<path d="M159.23 182.085C159.074 181.078 158.756 180.102 158.289 179.197C156.66 176.573 155.453 175.117 153.653 176.133C153.027 179.749 151.76 183.223 149.911 186.391C148.358 188.549 146.41 190.335 143.589 190.684C143.424 190.704 143.422 190.967 143.589 190.946C145.782 190.675 147.462 189.575 148.843 188.103C147.708 189.804 146.389 191.372 144.91 192.781C144.91 192.781 151.075 199.136 156.078 196.571C159.505 194.814 160.038 188.544 159.511 183.924C160.712 188.518 160.877 194.238 156.914 196.81C156.773 196.902 156.904 197.129 157.047 197.037C161.667 194.036 160.876 186.976 159.23 182.085Z" fill="#23286B"/>
<path d="M149.382 177.348C149.003 178.561 150.119 179.577 151.367 179.207C151.518 179.162 151.439 178.946 151.289 178.991C150.628 179.242 149.888 178.908 149.638 178.244C149.534 177.969 149.527 177.665 149.62 177.386C149.665 177.241 149.427 177.205 149.382 177.348Z" fill="#1C2868"/>
<path opacity="0.51" d="M162.112 188.816C162.134 188.865 162.192 188.886 162.24 188.864C162.241 188.864 162.242 188.863 162.243 188.863C162.291 188.841 162.312 188.784 162.29 188.736C162.29 188.735 162.29 188.735 162.29 188.735C162.268 188.686 162.211 188.665 162.162 188.687C162.161 188.687 162.16 188.688 162.159 188.688C162.111 188.71 162.09 188.767 162.112 188.815C162.112 188.816 162.112 188.816 162.112 188.816ZM167.294 196.468C167.276 196.519 167.303 196.575 167.354 196.593C167.402 196.613 167.457 196.59 167.476 196.542C167.477 196.54 167.478 196.539 167.478 196.537C167.495 196.486 167.469 196.43 167.418 196.412C167.368 196.393 167.313 196.418 167.294 196.468ZM168.1 194.247C168.081 194.298 168.107 194.355 168.158 194.373C168.208 194.392 168.265 194.366 168.284 194.315C168.284 194.314 168.284 194.313 168.284 194.312C168.303 194.262 168.278 194.207 168.228 194.188C168.176 194.171 168.121 194.197 168.1 194.247ZM163.618 193.006C163.659 193.041 163.72 193.037 163.755 192.996C163.79 192.955 163.785 192.894 163.744 192.859C163.705 192.825 163.645 192.829 163.61 192.868C163.575 192.909 163.579 192.97 163.618 193.006ZM165.213 191.262C165.254 191.297 165.315 191.293 165.35 191.252C165.385 191.211 165.38 191.15 165.339 191.115C165.299 191.081 165.24 191.085 165.204 191.124C165.17 191.165 165.173 191.226 165.213 191.262ZM172.045 196.108C172.048 196.161 172.094 196.203 172.148 196.2C172.201 196.198 172.242 196.154 172.24 196.101C172.24 196.101 172.24 196.1 172.24 196.1C172.241 196.048 172.2 196.005 172.148 196.004C172.146 196.004 172.143 196.004 172.141 196.004C172.087 196.009 172.046 196.054 172.045 196.108ZM171.944 193.743C171.948 193.797 171.993 193.839 172.046 193.839C172.1 193.836 172.141 193.789 172.139 193.736C172.136 193.682 172.091 193.64 172.037 193.643C172.037 193.643 172.036 193.643 172.036 193.643C171.983 193.645 171.942 193.689 171.944 193.742C171.944 193.742 171.944 193.743 171.944 193.743ZM161.954 191.394C161.986 191.43 162.041 191.433 162.077 191.401C162.112 191.37 162.115 191.315 162.083 191.279C162.052 191.243 161.997 191.24 161.961 191.272C161.926 191.304 161.923 191.358 161.954 191.394ZM163.52 189.982C163.552 190.017 163.606 190.02 163.642 189.989C163.679 189.958 163.684 189.903 163.653 189.866C163.622 189.829 163.567 189.825 163.531 189.855C163.529 189.856 163.528 189.858 163.527 189.859C163.491 189.889 163.487 189.943 163.517 189.979C163.518 189.98 163.518 189.981 163.52 189.982ZM169.935 195.152C169.934 195.201 169.972 195.242 170.02 195.246C170.067 195.249 170.107 195.213 170.109 195.167C170.109 195.165 170.109 195.164 170.109 195.163C170.113 195.115 170.077 195.073 170.029 195.07C170.028 195.07 170.028 195.07 170.027 195.07C169.98 195.069 169.939 195.105 169.935 195.152ZM170.047 193.048C170.045 193.096 170.082 193.136 170.129 193.138C170.176 193.14 170.216 193.105 170.218 193.059C170.218 193.057 170.218 193.056 170.218 193.055C170.222 193.007 170.186 192.965 170.138 192.962C170.137 192.962 170.137 192.962 170.136 192.962C170.089 192.962 170.049 193 170.047 193.048ZM165.858 192.98C165.838 193.024 165.858 193.075 165.901 193.096C165.944 193.116 165.995 193.099 166.016 193.055C166.036 193.012 166.019 192.96 165.977 192.937C165.932 192.917 165.879 192.935 165.858 192.98ZM161.297 193.537C161.276 193.589 161.298 193.648 161.348 193.672C161.399 193.695 161.458 193.674 161.482 193.624C161.504 193.573 161.481 193.513 161.431 193.489C161.38 193.466 161.321 193.487 161.297 193.537ZM162.323 191.327C162.3 191.377 162.321 191.437 162.371 191.461C162.421 191.485 162.481 191.463 162.505 191.413C162.529 191.363 162.507 191.303 162.457 191.279C162.407 191.255 162.347 191.277 162.323 191.327ZM163.346 189.116C163.324 189.167 163.347 189.227 163.398 189.25C163.449 189.272 163.507 189.248 163.529 189.198C163.551 189.147 163.527 189.088 163.476 189.066C163.427 189.045 163.369 189.067 163.346 189.116ZM171.524 194.047C171.544 194.099 171.602 194.126 171.656 194.108C171.708 194.087 171.733 194.028 171.712 193.976C171.691 193.925 171.635 193.9 171.584 193.918C171.533 193.938 171.506 193.995 171.524 194.047ZM161.442 186.289C161.402 186.327 161.399 186.391 161.436 186.433L161.442 186.289ZM166.237 193.66C166.237 193.715 166.28 193.761 166.335 193.766C166.39 193.766 166.435 193.722 166.437 193.667C166.44 193.612 166.399 193.565 166.344 193.562C166.344 193.562 166.343 193.562 166.342 193.562C166.287 193.56 166.239 193.603 166.237 193.66ZM164.604 194.006C164.601 194.061 164.644 194.108 164.699 194.111C164.754 194.114 164.801 194.072 164.804 194.017C164.807 193.963 164.767 193.917 164.713 193.912C164.657 193.908 164.609 193.95 164.604 194.006ZM164.808 191.586C164.804 191.642 164.846 191.691 164.901 191.695C164.956 191.698 165.003 191.658 165.01 191.604C165.013 191.548 164.972 191.499 164.916 191.492C164.861 191.49 164.813 191.531 164.808 191.586ZM161.243 189.155C161.219 189.204 161.238 189.263 161.287 189.288C161.287 189.288 161.287 189.288 161.287 189.288C161.336 189.314 161.397 189.296 161.423 189.248C161.448 189.198 161.429 189.137 161.379 189.111C161.33 189.086 161.269 189.106 161.243 189.155ZM162.133 188.745C162.123 188.785 162.147 188.826 162.187 188.837C162.227 188.846 162.267 188.823 162.279 188.783C162.29 188.743 162.266 188.702 162.226 188.691C162.226 188.691 162.226 188.691 162.226 188.691C162.187 188.679 162.146 188.701 162.135 188.739C162.134 188.741 162.134 188.743 162.133 188.745Z" fill="white"/>
<path opacity="0.51" d="M180.94 193.783C180.962 193.801 180.994 193.797 181.012 193.776C181.03 193.754 181.026 193.722 181.004 193.704C180.983 193.686 180.951 193.689 180.933 193.711C180.915 193.733 180.918 193.765 180.94 193.783ZM185.955 195.209C185.958 195.238 185.984 195.259 186.012 195.256C186.039 195.254 186.058 195.232 186.057 195.205C186.057 195.203 186.056 195.201 186.056 195.199C186.054 195.171 186.03 195.15 186.002 195.152C185.974 195.155 185.953 195.181 185.955 195.209ZM183.462 194.323C183.456 194.351 183.472 194.379 183.498 194.389C183.526 194.397 183.556 194.38 183.564 194.352C183.572 194.324 183.555 194.294 183.527 194.286C183.499 194.281 183.471 194.296 183.462 194.323ZM179.516 199.859C179.498 199.91 179.525 199.966 179.575 199.984C179.624 200.004 179.678 199.981 179.698 199.933C179.699 199.931 179.699 199.93 179.7 199.928C179.717 199.877 179.691 199.821 179.64 199.803C179.59 199.784 179.535 199.809 179.516 199.859ZM180.322 197.638C180.304 197.69 180.332 197.745 180.383 197.762C180.433 197.78 180.488 197.753 180.506 197.703C180.525 197.653 180.5 197.598 180.45 197.579C180.398 197.562 180.342 197.588 180.322 197.638ZM181.131 195.415C181.113 195.465 181.138 195.52 181.188 195.538C181.189 195.539 181.19 195.539 181.191 195.54C181.239 195.559 181.294 195.536 181.313 195.488C181.314 195.486 181.315 195.485 181.315 195.483C181.332 195.431 181.306 195.375 181.256 195.354C181.205 195.337 181.15 195.364 181.131 195.415ZM175.84 196.398C175.881 196.433 175.942 196.428 175.977 196.387C176.011 196.347 176.007 196.285 175.966 196.25C175.926 196.216 175.867 196.22 175.831 196.259C175.796 196.3 175.8 196.361 175.84 196.398ZM177.435 194.654C177.475 194.689 177.536 194.684 177.571 194.643C177.606 194.603 177.602 194.541 177.561 194.506C177.521 194.472 177.461 194.476 177.426 194.515C177.391 194.555 177.395 194.617 177.435 194.654ZM184.267 199.499C184.271 199.553 184.316 199.594 184.37 199.591C184.423 199.589 184.464 199.545 184.462 199.492C184.462 199.492 184.462 199.491 184.462 199.491C184.463 199.439 184.422 199.397 184.37 199.396C184.368 199.396 184.366 199.396 184.363 199.396C184.309 199.4 184.267 199.445 184.267 199.499ZM184.166 197.134C184.17 197.188 184.215 197.23 184.268 197.23C184.322 197.227 184.363 197.18 184.361 197.126C184.358 197.073 184.313 197.031 184.259 197.034C184.259 197.034 184.258 197.034 184.258 197.034C184.205 197.035 184.164 197.08 184.166 197.132C184.166 197.133 184.166 197.134 184.166 197.134ZM184.064 194.773C184.065 194.825 184.108 194.866 184.159 194.865C184.161 194.865 184.162 194.865 184.164 194.865C184.217 194.865 184.26 194.821 184.26 194.767C184.26 194.765 184.26 194.764 184.26 194.762C184.257 194.708 184.211 194.666 184.157 194.669C184.103 194.672 184.061 194.718 184.064 194.772C184.064 194.773 184.064 194.773 184.064 194.773ZM174.176 194.786C174.208 194.821 174.263 194.824 174.299 194.793C174.334 194.761 174.337 194.706 174.306 194.67C174.274 194.634 174.219 194.631 174.183 194.663C174.148 194.695 174.145 194.75 174.176 194.786ZM182.157 198.544C182.156 198.593 182.193 198.634 182.242 198.637C182.289 198.64 182.328 198.605 182.331 198.558C182.331 198.557 182.331 198.556 182.331 198.554C182.335 198.506 182.299 198.465 182.251 198.461C182.25 198.461 182.25 198.461 182.249 198.461C182.202 198.46 182.162 198.496 182.157 198.544ZM182.269 196.439C182.267 196.487 182.304 196.527 182.351 196.529C182.398 196.532 182.438 196.496 182.44 196.45C182.44 196.448 182.44 196.447 182.44 196.446C182.444 196.398 182.408 196.356 182.36 196.353C182.359 196.353 182.359 196.353 182.358 196.353C182.311 196.353 182.271 196.391 182.269 196.439ZM182.379 194.328C182.375 194.376 182.411 194.417 182.459 194.421C182.46 194.421 182.46 194.421 182.461 194.421C182.506 194.425 182.546 194.391 182.55 194.346C182.55 194.343 182.55 194.341 182.55 194.338C182.554 194.29 182.518 194.248 182.47 194.245C182.469 194.245 182.469 194.245 182.468 194.245C182.421 194.244 182.382 194.281 182.379 194.328ZM178.079 196.371C178.06 196.415 178.079 196.467 178.123 196.487C178.166 196.508 178.217 196.49 178.238 196.447C178.258 196.403 178.241 196.351 178.198 196.328C178.154 196.307 178.101 196.327 178.079 196.371ZM178.989 194.465C178.967 194.506 178.983 194.557 179.024 194.578C179.025 194.579 179.027 194.58 179.028 194.581C179.071 194.602 179.123 194.584 179.143 194.541C179.163 194.497 179.146 194.445 179.104 194.422C179.06 194.402 179.009 194.422 178.989 194.465ZM186.124 196.926C186.138 196.97 186.185 196.993 186.228 196.979C186.23 196.978 186.232 196.978 186.233 196.977C186.278 196.963 186.304 196.914 186.289 196.868C186.288 196.867 186.288 196.866 186.288 196.865C186.27 196.821 186.22 196.798 186.175 196.814C186.13 196.829 186.107 196.878 186.122 196.923C186.123 196.924 186.124 196.925 186.124 196.926ZM185.42 194.935C185.436 194.98 185.486 195.005 185.532 194.99C185.577 194.972 185.6 194.921 185.583 194.876C185.567 194.832 185.519 194.809 185.475 194.823C185.43 194.837 185.404 194.885 185.418 194.93C185.419 194.932 185.419 194.934 185.42 194.935ZM173.519 196.928C173.497 196.98 173.52 197.039 173.57 197.063C173.62 197.087 173.68 197.065 173.704 197.015C173.726 196.964 173.703 196.904 173.652 196.881C173.602 196.857 173.543 196.878 173.519 196.928ZM174.545 194.718C174.522 194.768 174.543 194.828 174.593 194.852C174.643 194.876 174.703 194.854 174.727 194.804C174.751 194.754 174.729 194.694 174.679 194.67C174.629 194.646 174.569 194.668 174.545 194.718ZM183.745 197.438C183.766 197.491 183.824 197.518 183.878 197.499C183.93 197.478 183.955 197.419 183.933 197.367C183.913 197.316 183.857 197.291 183.806 197.309C183.755 197.329 183.728 197.386 183.745 197.438ZM182.911 195.149C182.931 195.201 182.987 195.227 183.039 195.21C183.092 195.191 183.119 195.133 183.1 195.081C183.081 195.028 183.024 195.001 182.971 195.02C182.92 195.04 182.893 195.097 182.911 195.149ZM178.459 197.051C178.459 197.106 178.502 197.152 178.556 197.157C178.612 197.157 178.657 197.114 178.659 197.058C178.662 197.004 178.621 196.956 178.566 196.953C178.566 196.953 178.565 196.953 178.564 196.953C178.508 196.95 178.461 196.994 178.459 197.051C178.459 197.051 178.459 197.051 178.459 197.051ZM178.562 194.613C178.56 194.669 178.604 194.717 178.659 194.719C178.659 194.719 178.659 194.719 178.66 194.719C178.714 194.721 178.76 194.679 178.761 194.624C178.764 194.569 178.721 194.522 178.666 194.52C178.612 194.517 178.566 194.559 178.562 194.613ZM176.826 197.397C176.823 197.452 176.866 197.499 176.921 197.503C176.976 197.506 177.023 197.463 177.026 197.408C177.029 197.355 176.989 197.308 176.935 197.303C176.879 197.299 176.831 197.341 176.826 197.397ZM177.029 194.977C177.025 195.033 177.067 195.082 177.123 195.086C177.177 195.089 177.225 195.049 177.231 194.995C177.235 194.939 177.194 194.89 177.138 194.883C177.082 194.88 177.035 194.922 177.029 194.977ZM181.579 195.637C181.597 195.69 181.654 195.719 181.707 195.702C181.759 195.685 181.788 195.629 181.771 195.577C181.757 195.524 181.703 195.494 181.651 195.508C181.649 195.508 181.648 195.509 181.647 195.509C181.593 195.525 181.563 195.581 181.578 195.634C181.578 195.635 181.579 195.636 181.579 195.637Z" fill="white"/>
<path opacity="0.51" d="M194.946 197.101C194.968 197.119 195 197.115 195.018 197.093C195.036 197.072 195.032 197.04 195.01 197.022C194.989 197.004 194.957 197.007 194.939 197.029C194.921 197.051 194.925 197.083 194.946 197.101ZM195.723 196.127C195.746 196.144 195.778 196.141 195.798 196.12C195.815 196.097 195.81 196.065 195.787 196.048C195.768 196.03 195.737 196.031 195.719 196.051C195.718 196.052 195.717 196.053 195.715 196.055C195.698 196.077 195.701 196.109 195.723 196.127ZM199.962 198.528C199.965 198.556 199.99 198.577 200.019 198.574C200.045 198.573 200.065 198.55 200.063 198.524C200.063 198.522 200.063 198.519 200.062 198.517C200.06 198.489 200.036 198.469 200.009 198.471C199.98 198.473 199.959 198.499 199.962 198.528ZM193.78 194.666C193.793 194.69 193.823 194.699 193.848 194.686C193.872 194.672 193.881 194.642 193.868 194.618C193.855 194.593 193.825 194.585 193.8 194.598C193.776 194.609 193.766 194.637 193.778 194.661C193.778 194.663 193.779 194.664 193.78 194.666ZM197.468 197.641C197.462 197.669 197.478 197.697 197.505 197.707C197.533 197.715 197.562 197.698 197.57 197.67C197.578 197.642 197.562 197.613 197.533 197.605C197.506 197.599 197.478 197.614 197.468 197.641ZM197.815 196.443C197.808 196.471 197.825 196.498 197.852 196.505C197.877 196.515 197.906 196.502 197.915 196.476C197.915 196.475 197.916 196.474 197.916 196.472C197.923 196.444 197.907 196.415 197.88 196.407C197.852 196.401 197.824 196.417 197.815 196.443ZM188.341 195.525C188.363 195.574 188.42 195.595 188.469 195.573C188.47 195.573 188.471 195.572 188.472 195.572C188.52 195.55 188.541 195.493 188.519 195.445C188.519 195.445 188.518 195.445 188.518 195.444C188.496 195.396 188.439 195.374 188.39 195.396C188.389 195.396 188.388 195.397 188.387 195.397C188.339 195.419 188.319 195.476 188.34 195.524C188.34 195.525 188.34 195.525 188.341 195.525ZM190.478 194.526C190.501 194.576 190.559 194.597 190.609 194.575C190.658 194.552 190.68 194.493 190.657 194.444C190.657 194.443 190.657 194.443 190.656 194.442C190.634 194.394 190.577 194.373 190.529 194.395C190.529 194.395 190.529 194.395 190.529 194.395C190.48 194.419 190.458 194.476 190.478 194.526ZM193.522 203.177C193.505 203.228 193.531 203.284 193.582 203.302C193.63 203.322 193.685 203.299 193.704 203.251C193.705 203.249 193.706 203.248 193.706 203.246C193.723 203.195 193.697 203.139 193.646 203.121C193.596 203.102 193.541 203.127 193.522 203.177ZM195.137 198.733C195.119 198.783 195.144 198.838 195.194 198.856C195.195 198.857 195.196 198.857 195.197 198.857C195.245 198.877 195.3 198.854 195.32 198.806C195.32 198.804 195.321 198.803 195.321 198.801C195.338 198.749 195.312 198.693 195.262 198.672C195.211 198.655 195.156 198.682 195.137 198.733ZM195.943 196.512C195.925 196.563 195.952 196.619 196.003 196.637C196.054 196.655 196.11 196.628 196.128 196.577C196.147 196.527 196.122 196.471 196.072 196.453C196.022 196.433 195.965 196.458 195.945 196.508C195.944 196.509 195.944 196.511 195.943 196.512ZM189.846 199.716C189.887 199.751 189.948 199.746 189.983 199.705C190.018 199.665 190.013 199.603 189.972 199.568C189.933 199.534 189.873 199.538 189.838 199.577C189.803 199.618 189.807 199.679 189.846 199.716ZM191.441 197.972C191.482 198.007 191.543 198.002 191.578 197.961C191.613 197.921 191.608 197.859 191.567 197.824C191.527 197.79 191.468 197.794 191.433 197.833C191.398 197.874 191.401 197.935 191.441 197.972ZM193.036 196.231C193.077 196.267 193.14 196.262 193.176 196.22C193.21 196.18 193.207 196.12 193.169 196.083C193.13 196.045 193.067 196.047 193.029 196.086C192.991 196.126 192.992 196.189 193.032 196.227C193.033 196.229 193.034 196.23 193.036 196.231ZM198.273 202.817C198.277 202.871 198.322 202.912 198.376 202.909C198.429 202.907 198.47 202.863 198.468 202.81C198.468 202.81 198.468 202.809 198.468 202.809C198.469 202.757 198.428 202.715 198.376 202.714C198.374 202.714 198.372 202.714 198.369 202.714C198.315 202.718 198.274 202.763 198.273 202.817ZM198.071 198.091C198.072 198.143 198.114 198.184 198.166 198.183C198.167 198.183 198.169 198.183 198.17 198.183C198.224 198.183 198.266 198.139 198.266 198.085C198.266 198.083 198.266 198.082 198.266 198.08C198.263 198.026 198.217 197.984 198.164 197.987C198.109 197.99 198.068 198.036 198.071 198.09C198.071 198.091 198.071 198.091 198.071 198.091ZM188.182 198.104C188.214 198.139 188.269 198.142 188.305 198.111C188.34 198.079 188.344 198.024 188.312 197.988C188.28 197.952 188.225 197.949 188.189 197.981C188.154 198.013 188.151 198.067 188.182 198.104ZM189.748 196.691C189.78 196.726 189.834 196.729 189.87 196.698C189.907 196.667 189.912 196.612 189.881 196.575C189.85 196.539 189.795 196.534 189.759 196.565C189.757 196.566 189.756 196.567 189.755 196.568C189.719 196.598 189.715 196.652 189.745 196.688C189.746 196.689 189.747 196.69 189.748 196.691ZM191.293 195.219C191.29 195.24 191.298 195.262 191.313 195.278C191.345 195.313 191.4 195.317 191.436 195.285C191.472 195.253 191.476 195.197 191.444 195.159C191.443 195.159 191.443 195.159 191.443 195.159C191.424 195.137 191.395 195.126 191.366 195.13L191.362 195.13C191.346 195.131 191.331 195.139 191.32 195.152C191.301 195.168 191.29 195.193 191.293 195.219ZM196.163 201.862C196.162 201.911 196.2 201.952 196.249 201.955C196.295 201.958 196.335 201.923 196.338 201.876C196.338 201.875 196.338 201.874 196.338 201.872C196.341 201.824 196.305 201.783 196.257 201.779C196.257 201.779 196.256 201.779 196.256 201.779C196.208 201.778 196.168 201.814 196.163 201.862ZM196.385 197.646C196.382 197.693 196.417 197.735 196.465 197.739C196.466 197.739 196.466 197.739 196.467 197.739C196.512 197.743 196.552 197.709 196.556 197.664C196.556 197.661 196.556 197.659 196.556 197.656C196.56 197.608 196.524 197.566 196.476 197.563C196.475 197.563 196.475 197.563 196.474 197.563C196.427 197.562 196.388 197.599 196.385 197.646ZM196.494 195.541C196.493 195.589 196.531 195.63 196.58 195.631C196.627 195.632 196.666 195.595 196.669 195.548C196.67 195.501 196.635 195.46 196.587 195.455C196.538 195.454 196.497 195.492 196.494 195.541ZM192.086 199.689C192.066 199.733 192.086 199.785 192.129 199.805C192.172 199.825 192.223 199.808 192.244 199.765C192.264 199.721 192.247 199.669 192.205 199.646C192.16 199.626 192.107 199.645 192.086 199.689ZM192.995 197.783C192.973 197.824 192.989 197.875 193.03 197.896C193.031 197.897 193.033 197.898 193.034 197.899C193.077 197.919 193.129 197.902 193.149 197.859C193.169 197.815 193.152 197.763 193.11 197.74C193.066 197.72 193.015 197.74 192.995 197.783ZM193.9 195.877C193.88 195.92 193.899 195.972 193.942 195.992C193.984 196.012 194.035 195.995 194.055 195.952C194.076 195.91 194.059 195.858 194.016 195.836C193.973 195.815 193.922 195.833 193.901 195.875C193.901 195.876 193.901 195.877 193.9 195.877ZM199.426 198.253C199.442 198.298 199.492 198.323 199.538 198.308C199.583 198.29 199.606 198.239 199.589 198.193C199.572 198.15 199.525 198.127 199.481 198.141C199.435 198.155 199.41 198.203 199.424 198.248C199.425 198.25 199.426 198.252 199.426 198.253ZM193.951 196.192C193.944 196.219 193.96 196.247 193.988 196.254C194.015 196.261 194.042 196.244 194.049 196.217C194.056 196.189 194.04 196.162 194.012 196.155C193.985 196.148 193.958 196.165 193.951 196.192ZM194.249 194.984C194.244 195.012 194.262 195.039 194.29 195.046C194.317 195.053 194.345 195.036 194.352 195.009C194.359 194.983 194.344 194.956 194.319 194.948C194.317 194.947 194.316 194.947 194.315 194.947C194.287 194.939 194.258 194.954 194.25 194.982C194.25 194.983 194.249 194.983 194.249 194.984ZM191.916 194.534C191.939 194.549 191.97 194.544 191.988 194.523C192.005 194.501 192.001 194.469 191.979 194.452C191.978 194.451 191.978 194.451 191.977 194.45C191.956 194.433 191.925 194.436 191.908 194.457C191.907 194.459 191.905 194.46 191.905 194.461C191.888 194.485 191.893 194.517 191.916 194.534ZM196.501 195.69C196.505 195.718 196.53 195.737 196.558 195.734C196.586 195.73 196.605 195.704 196.601 195.676C196.6 195.65 196.577 195.63 196.551 195.632C196.549 195.632 196.546 195.632 196.544 195.633C196.517 195.636 196.497 195.661 196.501 195.688C196.501 195.689 196.501 195.69 196.501 195.69ZM188.56 194.055C188.581 194.078 188.616 194.081 188.64 194.06C188.64 194.06 188.641 194.06 188.641 194.059C188.665 194.039 188.669 194.003 188.649 193.978C188.648 193.977 188.647 193.976 188.646 193.975C188.626 193.951 188.59 193.949 188.567 193.969C188.566 193.97 188.566 193.97 188.565 193.97C188.541 193.993 188.539 194.03 188.56 194.055ZM193.907 196.645C193.904 196.675 193.926 196.702 193.955 196.706C193.957 196.706 193.96 196.706 193.962 196.706C193.994 196.708 194.021 196.683 194.023 196.651C194.023 196.619 194 196.592 193.968 196.587C193.936 196.586 193.908 196.612 193.907 196.645C193.907 196.645 193.907 196.645 193.907 196.645ZM193.993 195.226C193.992 195.259 194.018 195.287 194.051 195.288H194.051C194.083 195.289 194.11 195.264 194.112 195.233C194.112 195.2 194.089 195.173 194.057 195.168C194.024 195.168 193.996 195.193 193.993 195.226ZM191.293 195.219C191.298 195.225 191.305 195.231 191.312 195.235C191.34 195.25 191.375 195.238 191.389 195.21C191.39 195.209 191.39 195.208 191.39 195.208C191.404 195.179 191.393 195.146 191.366 195.13L191.363 195.13C191.334 195.115 191.3 195.127 191.286 195.156C191.285 195.156 191.285 195.157 191.285 195.157C191.274 195.178 191.278 195.202 191.293 195.219ZM196.695 195.587C196.706 195.618 196.739 195.634 196.769 195.624C196.77 195.623 196.771 195.623 196.771 195.623C196.801 195.613 196.816 195.58 196.806 195.55C196.798 195.521 196.768 195.503 196.738 195.51C196.736 195.511 196.735 195.511 196.734 195.511C196.703 195.522 196.686 195.556 196.695 195.587ZM187.525 200.247C187.504 200.298 187.526 200.357 187.576 200.381C187.627 200.405 187.686 200.384 187.71 200.333C187.732 200.282 187.709 200.222 187.659 200.199C187.609 200.175 187.549 200.196 187.525 200.247ZM188.551 198.036C188.528 198.086 188.549 198.146 188.599 198.17C188.649 198.194 188.709 198.172 188.733 198.122C188.757 198.072 188.735 198.012 188.685 197.988C188.635 197.965 188.575 197.986 188.551 198.036ZM189.574 195.825C189.552 195.876 189.575 195.936 189.626 195.96C189.677 195.981 189.735 195.958 189.757 195.907C189.779 195.856 189.755 195.797 189.704 195.775C189.655 195.754 189.597 195.776 189.574 195.825ZM196.917 198.467C196.937 198.519 196.993 198.546 197.046 198.528C197.098 198.509 197.125 198.452 197.107 198.399C197.088 198.347 197.03 198.319 196.978 198.338C196.926 198.358 196.899 198.415 196.917 198.467ZM196.082 196.178C196.102 196.23 196.159 196.257 196.211 196.239C196.264 196.218 196.29 196.16 196.272 196.107C196.251 196.054 196.192 196.03 196.14 196.051C196.09 196.071 196.065 196.127 196.082 196.178ZM192.568 197.931C192.566 197.987 192.61 198.035 192.666 198.037C192.666 198.037 192.666 198.037 192.666 198.037C192.72 198.039 192.766 197.996 192.768 197.942C192.771 197.887 192.729 197.84 192.674 197.836C192.619 197.833 192.572 197.875 192.568 197.93C192.568 197.93 192.568 197.931 192.568 197.931ZM192.671 195.497C192.667 195.551 192.709 195.599 192.763 195.602C192.764 195.602 192.765 195.602 192.765 195.602C192.821 195.606 192.87 195.564 192.874 195.508C192.878 195.452 192.836 195.403 192.78 195.399C192.724 195.395 192.675 195.437 192.671 195.493C192.671 195.495 192.671 195.496 192.671 195.497ZM191.036 198.295C191.032 198.351 191.074 198.4 191.13 198.404C191.184 198.407 191.231 198.367 191.238 198.313C191.241 198.257 191.2 198.208 191.145 198.201C191.089 198.199 191.041 198.24 191.036 198.295ZM191.238 195.875C191.235 195.931 191.276 195.98 191.332 195.984C191.387 195.989 191.436 195.948 191.441 195.893C191.445 195.839 191.405 195.79 191.35 195.785C191.295 195.78 191.246 195.82 191.238 195.875ZM187.471 195.864C187.447 195.913 187.466 195.972 187.515 195.997C187.515 195.997 187.515 195.997 187.515 195.997C187.564 196.024 187.625 196.005 187.651 195.957C187.676 195.907 187.657 195.846 187.607 195.82C187.558 195.796 187.498 195.815 187.471 195.864ZM188.585 193.705C188.559 193.753 188.578 193.814 188.626 193.841C188.675 193.867 188.735 193.848 188.761 193.8C188.762 193.799 188.762 193.798 188.763 193.797C188.787 193.747 188.767 193.687 188.719 193.66C188.67 193.635 188.61 193.655 188.586 193.704C188.586 193.704 188.586 193.704 188.585 193.705ZM195.585 198.956C195.603 199.009 195.661 199.037 195.714 199.02C195.766 199.003 195.794 198.947 195.777 198.895C195.763 198.843 195.709 198.812 195.657 198.826C195.656 198.827 195.654 198.827 195.653 198.828C195.6 198.843 195.569 198.899 195.585 198.953C195.585 198.954 195.585 198.955 195.585 198.956ZM194.849 196.642C194.868 196.695 194.925 196.723 194.978 196.706C195.03 196.689 195.059 196.633 195.041 196.581C195.027 196.529 194.973 196.498 194.921 196.512C194.92 196.513 194.919 196.513 194.917 196.514C194.864 196.529 194.833 196.586 194.849 196.639C194.849 196.64 194.849 196.641 194.849 196.642ZM192.035 196.699C192.04 196.741 192.078 196.77 192.12 196.764C192.16 196.759 192.189 196.722 192.185 196.682C192.182 196.642 192.147 196.612 192.107 196.615C192.104 196.616 192.102 196.616 192.099 196.616C192.059 196.622 192.03 196.659 192.035 196.699ZM191.806 194.886C191.812 194.928 191.85 194.957 191.892 194.951C191.933 194.945 191.963 194.907 191.957 194.865C191.952 194.824 191.915 194.794 191.874 194.799C191.873 194.799 191.872 194.799 191.871 194.799C191.83 194.806 191.801 194.844 191.806 194.886ZM188.361 195.454C188.351 195.494 188.375 195.535 188.415 195.546C188.455 195.554 188.495 195.531 188.507 195.492C188.518 195.452 188.494 195.411 188.454 195.4C188.454 195.4 188.454 195.4 188.454 195.399C188.415 195.388 188.374 195.41 188.363 195.448C188.362 195.45 188.362 195.452 188.361 195.454ZM188.842 193.685C188.832 193.726 188.855 193.768 188.896 193.781C188.936 193.792 188.977 193.768 188.988 193.728C188.988 193.727 188.988 193.727 188.988 193.727C189 193.688 188.979 193.647 188.94 193.636C188.939 193.635 188.938 193.635 188.937 193.635C188.898 193.622 188.855 193.644 188.842 193.684C188.842 193.684 188.842 193.685 188.842 193.685Z" fill="white"/>
<path d="M15.2592 214.282L16.6861 210.268C17.2005 210.242 17.7077 210.3 18.199 210.47L16.6562 214.81C16.5697 215.053 16.6907 215.323 16.9271 215.412C17.1634 215.501 17.425 215.376 17.5115 215.133L19.026 210.874C19.4843 211.17 19.8787 211.561 20.2016 212.023L18.924 215.616C18.8375 215.86 18.9585 216.129 19.1949 216.219C19.4312 216.308 19.6928 216.183 19.7793 215.939L20.783 213.117C21.3592 214.587 21.3932 216.449 20.7428 218.278C20.7274 218.321 20.7119 218.363 20.696 218.405C21.0302 218.604 21.3561 218.819 21.6692 219.055C22.5472 219.72 23.6795 220.848 24.0853 222.446L23.6445 222.565C23.2722 221.1 22.2181 220.054 21.3994 219.434C21.1172 219.22 20.8221 219.024 20.5183 218.842C19.8365 220.399 18.7459 221.61 17.5249 222.278L18.4786 219.597C18.5651 219.353 18.4441 219.083 18.2077 218.994C17.9714 218.905 17.7098 219.03 17.6233 219.273L16.3946 222.729C15.8586 222.866 15.3148 222.896 14.7834 222.805L16.2113 218.79C16.2978 218.546 16.1768 218.277 15.9404 218.188C15.7041 218.098 15.4425 218.223 15.356 218.467L13.9085 222.537C13.4414 222.324 13.0258 222.005 12.652 221.614L13.9589 217.939C14.0454 217.696 13.9239 217.426 13.6881 217.337C13.4522 217.248 13.1901 217.372 13.1036 217.616L11.9805 220.775C11.6175 220.244 11.3008 219.646 11.0176 219.028L11.7225 217.044C11.809 216.801 11.688 216.531 11.4517 216.442C11.2153 216.353 10.9537 216.478 10.8672 216.721L10.4918 217.777C9.79816 216.002 9.30639 214.305 8.72656 213.739C9.70805 213.526 11.1056 212.558 12.6535 211.697L12.1674 213.064C12.0809 213.308 12.2019 213.577 12.4383 213.666C12.6746 213.756 12.9362 213.631 13.0228 213.387L13.8415 211.084C14.4409 210.803 15.0527 210.567 15.6618 210.421L14.4038 213.959C14.3173 214.202 14.4389 214.472 14.6747 214.561C14.9111 214.65 15.1726 214.525 15.2592 214.282Z" fill="#EEEEEE"/>
<path opacity="0.8" d="M33.6097 231.075L32.1827 227.061C31.6683 227.035 31.161 227.093 30.6697 227.263L32.2126 231.602C32.2991 231.846 32.1781 232.116 31.9417 232.205C31.7053 232.294 31.4437 232.169 31.3572 231.926L29.8427 227.667C29.3844 227.963 28.9899 228.354 28.6671 228.816L29.9447 232.409C30.0312 232.653 29.9102 232.922 29.6738 233.011C29.4374 233.101 29.1758 232.976 29.0893 232.732L28.0857 229.91C27.5094 231.38 27.4754 233.242 28.1258 235.07C28.1408 235.113 28.1567 235.155 28.1727 235.198C27.8385 235.396 27.5125 235.611 27.1994 235.848C26.3214 236.513 25.189 237.641 24.7832 239.239L25.224 239.358C25.5963 237.893 26.6505 236.846 27.4692 236.226C27.7514 236.012 28.0465 235.817 28.3504 235.635C29.0322 237.192 30.1229 238.402 31.3438 239.071L30.3901 236.39C30.3036 236.146 30.4246 235.877 30.661 235.787C30.8974 235.698 31.159 235.823 31.2455 236.067L32.4742 239.522C33.0103 239.659 33.5541 239.689 34.0855 239.598L32.6575 235.583C32.571 235.34 32.692 235.07 32.9284 234.981C33.1647 234.892 33.4263 235.016 33.5129 235.26L34.9599 239.33C35.427 239.117 35.8425 238.799 36.2164 238.407L34.9094 234.732C34.8229 234.489 34.9439 234.219 35.1803 234.13C35.4167 234.041 35.6783 234.166 35.7648 234.409L36.8879 237.568C37.251 237.037 37.5677 236.439 37.8509 235.821L37.1459 233.838C37.0594 233.594 37.1804 233.325 37.4168 233.235C37.6532 233.146 37.9148 233.271 38.0013 233.514L38.3767 234.571C39.0703 232.794 39.5621 231.099 40.142 230.532C39.1605 230.319 37.7628 229.351 36.2149 228.49L36.701 229.858C36.7875 230.101 36.6665 230.371 36.4301 230.46C36.1937 230.549 35.9321 230.424 35.8456 230.181L35.0268 227.878C34.4274 227.597 33.8156 227.361 33.2064 227.215L34.4645 230.752C34.551 230.996 34.43 231.265 34.1936 231.355C33.9583 231.443 33.6967 231.318 33.6097 231.075Z" fill="#D6D7D8"/>
<path d="M125.72 189.617V188.521C125.72 186.948 124.45 185.672 122.882 185.672H121.831C123.028 185.356 123.914 184.272 123.914 182.971V164.087C123.914 162.538 122.664 161.283 121.121 161.283H102.309C100.766 161.283 99.5151 162.538 99.5151 164.087V182.971C99.5151 184.271 100.401 185.355 101.598 185.672H91.3165C92.5132 185.356 93.3995 184.272 93.3995 182.971V164.087C93.3995 162.538 92.1489 161.283 90.6056 161.283H71.7941C70.2513 161.283 69.0001 162.538 69.0001 164.087V182.971C69.0001 184.271 69.8864 185.355 71.0832 185.672H60.8016C61.9983 185.356 62.8846 184.272 62.8846 182.971V164.087C62.8846 162.538 61.6339 161.283 60.0907 161.283H41.2791C39.7364 161.283 38.4852 162.538 38.4852 164.087V182.971C38.4852 184.271 39.3715 185.355 40.5682 185.672H38.3386C36.7713 185.672 35.5007 186.948 35.5007 188.521V189.945H35.6635C33.982 190.737 32.812 192.448 32.812 194.431V209.213H33.8967V194.431C33.8967 192.298 35.6253 190.563 37.7502 190.563H124.564C126.689 190.563 128.418 192.298 128.418 194.431V209.213H129.502V194.431C129.502 192.098 127.886 190.141 125.72 189.617ZM104.731 164.649H118.7C119.163 164.649 119.538 165.025 119.538 165.49C119.538 165.954 119.163 166.331 118.7 166.331H104.731C104.268 166.331 103.893 165.954 103.893 165.49C103.893 165.025 104.267 164.649 104.731 164.649ZM104.731 170.257H118.7C119.163 170.257 119.538 170.634 119.538 171.099C119.538 171.563 119.163 171.94 118.7 171.94H104.731C104.268 171.94 103.893 171.563 103.893 171.099C103.893 170.634 104.267 170.257 104.731 170.257ZM104.731 175.867H118.7C119.163 175.867 119.538 176.243 119.538 176.708C119.538 177.172 119.163 177.549 118.7 177.549H104.731C104.268 177.549 103.893 177.172 103.893 176.708C103.892 176.243 104.267 175.867 104.731 175.867ZM74.2153 164.649H88.1844C88.6472 164.649 89.0225 165.025 89.0225 165.49C89.0225 165.954 88.6472 166.331 88.1844 166.331H74.2153C73.7525 166.331 73.3772 165.954 73.3772 165.49C73.3772 165.025 73.7525 164.649 74.2153 164.649ZM74.2153 170.257H88.1844C88.6472 170.257 89.0225 170.634 89.0225 171.099C89.0225 171.563 88.6472 171.94 88.1844 171.94H74.2153C73.7525 171.94 73.3772 171.563 73.3772 171.099C73.3772 170.634 73.7525 170.257 74.2153 170.257ZM74.2153 175.867H88.1844C88.6472 175.867 89.0225 176.243 89.0225 176.708C89.0225 177.172 88.6472 177.549 88.1844 177.549H74.2153C73.7525 177.549 73.3772 177.172 73.3772 176.708C73.3772 176.243 73.7525 175.867 74.2153 175.867ZM43.7003 164.649H57.6695C58.1322 164.649 58.5076 165.025 58.5076 165.49C58.5076 165.954 58.1322 166.331 57.6695 166.331H43.7003C43.2376 166.331 42.8622 165.954 42.8622 165.49C42.8622 165.025 43.2376 164.649 43.7003 164.649ZM43.7003 170.257H57.6695C58.1322 170.257 58.5076 170.634 58.5076 171.099C58.5076 171.563 58.1322 171.94 57.6695 171.94H43.7003C43.2376 171.94 42.8622 171.563 42.8622 171.099C42.8622 170.634 43.2376 170.257 43.7003 170.257ZM43.7003 175.867H57.6695C58.1322 175.867 58.5076 176.243 58.5076 176.708C58.5076 177.172 58.1322 177.549 57.6695 177.549H43.7003C43.2376 177.549 42.8622 177.172 42.8622 176.708C42.8622 176.243 43.2376 175.867 43.7003 175.867Z" fill="#D6D7D8"/>
<path d="M65.2923 4.5481C65.2833 4.77586 65.2749 5.00413 65.2749 5.23449C65.2749 14.7096 73.089 22.3907 82.7278 22.3907C92.367 22.3907 100.181 14.7096 100.181 5.23449C100.181 5.00413 100.173 4.77637 100.164 4.5481H65.2923Z" fill="#D3E3FE"/>
<path d="M84.1339 11.5452C84.1287 11.6746 84.124 11.8045 84.124 11.9355C84.124 17.3232 88.4219 21.691 93.723 21.691C99.0246 21.691 103.322 17.3232 103.322 11.9355C103.322 11.8045 103.318 11.6751 103.313 11.5452H84.1339Z" fill="#E3EDFE"/>
<path d="M110.968 235.464C111.182 234.739 110.352 234.165 109.655 233.852C104.413 231.498 99.1705 229.144 93.9284 226.791C92.783 226.277 91.6265 225.759 90.3943 225.506C86.3014 224.666 81.891 226.834 77.9542 225.447C76.977 229.315 76.6125 233.333 76.8781 237.31C85.1961 237.501 93.5142 237.691 101.832 237.881C104.809 237.95 108.046 237.938 110.406 236.146C110.646 235.964 110.883 235.75 110.968 235.464Z" fill="#151A4F"/>
<path opacity="0.75" d="M75.7882 229.213C80.3427 230.104 83.2048 229.735 89.8164 229.861C91.9048 229.901 98.8725 229.155 98.8725 229.155C98.8725 229.155 108.274 230.754 111.142 234.447C112.983 236.819 109.859 237.891 107.73 237.897C94.0194 237.932 86.2063 237.755 74.3702 237.088C72.6364 236.549 74.4158 231.684 75.7882 229.213Z" fill="#A1C3FC"/>
<path d="M72.431 83.6152C72.322 83.6152 72.2068 83.6126 72.0845 83.6075C71.9817 83.6033 71.9022 83.5258 71.9069 83.4344C71.9117 83.343 71.9983 83.2744 72.1016 83.2765C73.5149 83.3345 73.7862 83.0441 73.9961 82.6589C74.0409 82.5763 74.1523 82.5425 74.2451 82.5823C74.3379 82.622 74.3765 82.7211 74.3312 82.8037C74.0537 83.3129 73.6396 83.6152 72.431 83.6152Z" fill="#23286B"/>
<path d="M58.7214 87.8445C58.4709 86.2426 58.8443 84.5972 59.4614 83.0999C60.428 80.7535 62.0879 78.5993 64.3851 77.5606C66.6824 76.5214 69.6532 76.8219 71.3758 78.6747C73.0171 80.4394 73.3251 83.2355 75.166 84.7862C75.7146 85.2479 76.4463 85.7013 76.4448 86.4221C76.4437 86.9347 76.0553 87.3467 75.78 87.777C75.0239 88.9596 75.0696 90.4794 74.6086 91.8081C73.7426 94.3021 71.0543 95.8632 68.4366 95.8601C65.8189 95.8569 63.3366 94.511 61.4615 92.6672C60.1231 91.351 59.0123 89.7072 58.7214 87.8445Z" fill="#FFBEB6"/>
<path d="M125.06 115.987C125.266 115.711 125.496 115.403 125.828 115.35C126.302 115.275 126.703 115.799 126.71 116.296C126.716 116.793 126.454 117.245 126.201 117.668C125.601 118.669 125.001 119.669 124.401 120.67C122.98 120.806 121.559 120.943 120.139 121.079C119.892 121.103 119.634 121.131 119.429 121.275C119.212 121.427 119.091 121.684 118.962 121.921C118.017 123.669 116.174 124.857 114.244 124.963C111.243 125.128 107.218 124.952 104.37 125.948C104.731 124.829 106.062 121.617 106.3 120.463C108.111 119.756 109.966 119.022 111.414 117.692C112.546 116.652 113.218 115.756 114.218 114.58C114.899 113.78 116.036 112.444 116.705 113.255C117.344 114.028 115.507 116.37 114.377 117.995C114.095 118.402 113.972 119.166 114.451 119.238C114.568 119.256 114.685 119.214 114.798 119.176C115.797 118.839 116.864 118.72 117.909 118.831C118.586 118.903 119.255 119.07 119.936 119.077C121.984 119.097 123.808 117.669 125.06 115.987Z" fill="url(#paint6_linear)"/>
<path d="M105.916 89.8651C104.801 90.6817 103.616 91.4005 102.377 92.0117C102.343 91.4021 102.31 90.792 102.275 90.1824C102.912 89.9671 103.617 89.6903 103.885 89.073C104.009 88.7874 104.018 88.467 104.032 88.1555C104.095 86.7459 104.291 85.3421 104.614 83.9684C104.683 83.6772 104.761 83.3791 104.937 83.1373C105.175 82.8096 105.56 82.6265 105.939 82.4871C106.603 82.2437 107.299 82.0939 108.004 82.0424C109.013 81.9691 110.11 82.0773 110.954 81.5161C111.18 82.5729 110.59 83.7484 109.608 84.1947C108.8 84.5619 107.738 84.5172 107.209 85.2308C106.49 86.1998 107.407 87.6535 106.936 88.7656C106.739 89.2332 106.324 89.566 105.916 89.8651Z" fill="#E3EDFE"/>
<path d="M120.775 74.8688H111.375C108.856 74.8688 106.813 76.8861 106.813 79.3743V91.6618H112.274V89.6136C112.274 85.9945 115.244 83.0604 118.909 83.0604H120.568C120.568 83.0604 120.775 74.9373 120.775 74.8688Z" fill="#D6D7D8"/>
<path d="M113.443 87.9501C113.372 88.1127 113.455 88.2968 113.513 88.4646C113.792 89.268 113.338 90.3206 112.508 90.4669C112.864 91.2618 113.196 92.2676 112.643 92.9368C112.44 93.1825 112.131 93.354 112.025 93.6554C111.924 93.94 112.035 94.253 112.021 94.555C111.997 95.0637 111.609 95.4966 111.154 95.7165C110.699 95.9364 110.185 95.9827 109.682 96.0222C106.771 96.251 103.709 96.4031 101.228 97.9592C101.493 95.5913 101.759 93.223 102.024 90.8551C102.768 90.692 103.444 90.2291 103.869 89.5904C104.094 89.2532 104.251 88.8713 104.501 88.553C104.812 88.1585 105.247 87.886 105.683 87.6424C108.369 86.1447 111.275 85.1856 114.335 85.3924C115.288 85.5302 114.721 87.0585 114.062 87.4588C113.937 87.5351 113.501 87.816 113.443 87.9501Z" fill="#E3EDFE"/>
<path d="M93.2684 131.257C91.7449 130.776 90.1075 130.902 88.511 130.957C83.991 131.111 79.2877 130.593 75.4 128.282C73.5126 127.159 71.82 125.62 69.7083 125.017C68.8954 124.785 68.0305 124.695 67.2832 124.3C65.7954 123.513 65.151 121.743 64.7787 120.1C64.0723 116.988 63.9053 113.634 65.1206 110.683C66.3358 107.732 69.1769 105.305 72.3667 105.306C74.6164 105.307 76.6877 106.451 78.6439 107.562C81.2618 109.05 83.9506 110.598 85.8012 112.974C86.507 113.88 87.1687 114.961 88.2705 115.286C88.823 115.449 89.4132 115.393 89.9878 115.441C91.9461 115.604 93.7174 117.121 94.1801 119.032C95.7703 117.541 98.532 117.553 100.11 119.056C100.505 119.432 100.842 119.893 101.331 120.133C103.162 121.03 105.419 118.288 107.152 119.362C107.388 122.258 107.625 125.154 107.86 128.049C106.929 130.201 104.545 131.628 102.209 131.431C100.564 131.292 98.8298 130.453 97.3504 131.187C96.9813 131.371 96.6578 131.644 96.2702 131.784C95.2945 132.136 94.2583 131.569 93.2684 131.257Z" fill="#89B3F4"/>
<path d="M99.7978 235.814C100.012 235.089 99.182 234.515 98.4852 234.201C93.2431 231.848 88.0006 229.494 82.7585 227.141C81.6131 226.627 80.4565 226.109 79.2243 225.856C75.1314 225.016 70.7211 227.184 66.7843 225.797C65.8071 229.665 65.4426 233.683 65.7081 237.66C74.0262 237.85 82.3443 238.041 90.6618 238.231C93.6394 238.299 96.8763 238.288 99.2365 236.496C99.4761 236.314 99.7137 236.1 99.7978 235.814Z" fill="url(#paint7_linear)"/>
<path d="M74.4221 190.19C74.0111 187.845 72.7215 185.716 72.4291 183.352C72.1265 180.907 72.9172 178.464 72.9974 176C73.1037 172.725 71.9585 169.564 71.2156 166.375C70.5508 163.52 70.204 160.601 69.8587 157.688C69.6352 155.803 69.4117 153.919 69.1887 152.036C68.9015 149.615 68.6143 147.17 68.8553 144.744C75.368 140.304 84.3782 142.492 91.5373 139.242C91.5948 142.527 91.6524 145.812 91.7099 149.097C91.7541 151.625 91.7983 154.152 91.8029 156.681C91.8281 171.614 90.4589 186.51 89.8963 201.432C89.5957 209.403 89.5258 217.385 89.6866 225.36C84.6947 226.215 79.5641 226.221 74.5706 225.379C75.0176 222.351 73.7747 219.367 72.7636 216.483C71.5475 213.012 70.6283 209.319 71.1026 205.666C71.789 200.382 75.3423 195.439 74.4221 190.19Z" fill="#81AEF2"/>
<path d="M69.2894 84.3149C69.1804 84.3149 69.0652 84.3123 68.9429 84.3073C68.8401 84.303 68.7606 84.2256 68.7653 84.1341C68.7701 84.0427 68.8605 83.9708 68.96 83.9763C70.37 84.0338 70.6446 83.7439 70.8545 83.3588C70.8993 83.2762 71.0107 83.2419 71.1035 83.2821C71.1963 83.3219 71.2349 83.421 71.1896 83.5035C70.9121 84.0127 70.498 84.3149 69.2894 84.3149Z" fill="#23286B"/>
<path d="M67.8357 87.2441C67.9274 87.165 68.79 87.1629 68.9059 87.1308C71.6369 86.3762 73.4388 85.797 76.0606 85.7143C77.0247 86.5274 76.024 92.2256 74.7167 95.1603C72.1512 94.8246 69.5856 94.489 67.02 94.1533C67.2694 92.156 67.5188 90.1588 67.7687 88.1616C67.8022 87.8917 67.6317 87.4196 67.8357 87.2441Z" fill="#EBF2FE"/>
<path d="M66.685 98.6607C60.3405 98.7672 54.6076 104.488 54.4572 110.862C54.4211 112.392 54.6645 113.916 54.9915 115.411C56.5842 122.691 60.2151 129.51 65.3587 134.88C66.6443 136.223 68.8355 137.496 70.1571 136.19C70.9192 137.353 70.6497 139.572 69.8003 140.672C68.951 141.773 62.375 150.786 60.82 158.601C60.0929 162.256 62.7214 168.342 63.4156 169.311C64.302 170.547 65.4674 183.129 65.6032 184.646C65.9177 188.16 64.1526 192.013 64.3767 195.534C64.6248 199.433 65.6701 200.052 65.8074 203.956C65.9307 207.45 64.3417 210.526 64.3767 214.022C64.4242 218.814 65.9171 221.551 65.798 226.341C71.1402 226.409 76.4855 226.24 81.813 225.836C82.9794 213.61 81.7529 199.025 84.2059 194.095C86.3235 189.84 86.2201 166.398 88.8021 159.589C89.3292 158.199 90.9662 149.645 91.0211 146.688C91.1015 142.363 92.8477 140.237 92.4398 135.93C91.6223 127.302 90.8816 124.7 87.4774 115.006C85.0244 108.022 80.8633 103.756 74.8311 100.79C72.2862 99.5394 69.5167 98.6129 66.685 98.6607Z" fill="#A1C3FC"/>
<path d="M92.5016 140.564C91.8695 143.12 81.0269 141.846 70.1616 140.564L70.1894 136.093C80.4626 137.169 91.259 138.502 92.5016 136.14V140.564Z" fill="#FF6440"/>
<path d="M68.91 174.227C68.8651 174.227 68.8202 174.213 68.7827 174.182C67.1548 172.871 65.8275 171.174 64.9449 169.273C64.8974 169.17 64.9413 169.047 65.0436 168.999C65.1453 168.951 65.2675 168.996 65.315 169.098C66.1709 170.942 67.458 172.59 69.0379 173.861C69.1261 173.932 69.1402 174.061 69.0697 174.15C69.029 174.201 68.97 174.227 68.91 174.227Z" fill="white"/>
<path d="M70.3247 184.023C70.2558 184.023 70.1896 183.983 70.1573 183.913L67.7373 178.709C67.6921 178.611 67.7302 178.493 67.8224 178.445C67.9152 178.398 68.0261 178.438 68.0717 178.535L70.4917 183.74C70.5369 183.838 70.4989 183.956 70.4066 184.003C70.3804 184.017 70.3523 184.023 70.3247 184.023Z" fill="white"/>
<path d="M84.0062 181.574C83.9994 181.574 83.9931 181.574 83.9863 181.573C83.8737 181.562 83.791 181.462 83.802 181.349C84.2465 176.717 85.3156 172.082 86.3496 167.601C86.7663 165.795 87.1967 163.929 87.5726 162.117C87.1224 162.543 86.1386 163.868 85.325 164.964C83.0407 168.04 82.3104 168.899 81.8722 168.678C81.6141 168.547 81.6167 168.172 81.8811 167.295C82.9601 163.719 85.0622 160.211 87.9595 157.149C88.0375 157.066 88.1679 157.063 88.249 157.141C88.3312 157.22 88.3344 157.35 88.2564 157.432C85.4025 160.448 83.3334 163.9 82.2732 167.415C82.1224 167.915 82.0921 168.155 82.0905 168.265C82.5743 167.979 84.0198 166.032 84.9962 164.717C87.0805 161.91 87.5066 161.444 87.8422 161.597C88.0763 161.703 88.0103 162.023 87.982 162.159C87.6035 163.989 87.1689 165.872 86.7485 167.694C85.7177 172.162 84.6512 176.783 84.2093 181.387C84.1994 181.495 84.1104 181.574 84.0062 181.574Z" fill="white"/>
<path d="M86.4042 132.595C86.3757 132.595 86.3463 132.587 86.3192 132.571C86.2281 132.519 86.1925 132.392 86.2395 132.291C87.3474 129.889 87.5487 127.04 86.7925 124.473C86.7602 124.363 86.8134 124.246 86.9107 124.209C87.0075 124.172 87.1134 124.233 87.1452 124.341C87.9327 127.015 87.7229 129.981 86.5699 132.481C86.5362 132.553 86.4716 132.595 86.4042 132.595Z" fill="white"/>
<path d="M80.1043 128.746C80.0759 128.746 80.0475 128.739 80.0209 128.723C78.6267 127.888 77.634 126.199 77.4924 124.419C77.4837 124.307 77.5561 124.209 77.6551 124.199C77.7532 124.193 77.8407 124.271 77.8499 124.383C77.981 126.029 78.899 127.592 80.1887 128.363C80.2762 128.416 80.3097 128.539 80.2634 128.638C80.2308 128.707 80.1685 128.746 80.1043 128.746Z" fill="white"/>
<path d="M66.8176 125.598C66.7964 125.598 66.7747 125.594 66.753 125.587C64.4597 124.815 62.5594 122.91 61.7946 120.616C61.7594 120.51 61.8163 120.395 61.9223 120.36C62.0288 120.325 62.1431 120.383 62.1783 120.488C62.9043 122.665 64.7069 124.471 66.8823 125.204C66.9883 125.24 67.0452 125.354 67.0095 125.46C66.9805 125.544 66.9019 125.598 66.8176 125.598Z" fill="white"/>
<path d="M72.751 134.694C72.7153 134.694 72.6796 134.684 72.647 134.664C70.4878 133.327 68.5561 131.516 67.0594 129.428C66.9932 129.335 67.0124 129.205 67.1024 129.137C67.1923 129.069 67.3185 129.088 67.3852 129.181C68.8499 131.225 70.7417 132.997 72.856 134.307C72.9516 134.367 72.9827 134.495 72.9253 134.593C72.8865 134.658 72.8198 134.694 72.751 134.694Z" fill="white"/>
<path d="M80.4277 136.443C80.3799 136.443 80.3316 136.427 80.2927 136.395C79.8928 136.059 79.5229 135.672 79.1651 135.297C78.4416 134.538 77.7575 133.822 76.8353 133.48C76.7928 133.464 76.7544 133.45 76.7192 133.438C76.7865 133.508 76.8584 133.582 76.922 133.647C77.562 134.3 78.0023 134.793 77.8405 135.194L77.769 135.372L77.582 135.31C74.8639 134.403 72.7747 132.055 72.2593 129.329C72.2388 129.222 72.3129 129.118 72.4248 129.099C72.5372 129.082 72.6439 129.15 72.6639 129.258C73.1325 131.737 74.9726 133.886 77.3939 134.819C77.231 134.539 76.8264 134.126 76.6236 133.919C76.1843 133.472 75.9841 133.267 76.1276 133.061C76.2537 132.879 76.5043 132.933 76.9835 133.11C77.9955 133.486 78.7442 134.271 79.4683 135.029C79.8188 135.396 80.1808 135.775 80.5628 136.096C80.6484 136.168 80.6574 136.293 80.5828 136.376C80.5423 136.42 80.4855 136.443 80.4277 136.443Z" fill="white"/>
<path d="M78.6061 220.408C78.5925 220.408 78.5789 220.407 78.5654 220.402C78.47 220.376 78.4112 220.267 78.4338 220.157C78.7489 218.62 78.6481 216.963 78.1503 215.491C78.0956 215.329 78.0359 215.166 77.9758 215C77.6493 214.104 77.3121 213.177 77.6019 212.253C77.7167 211.886 77.9179 211.582 78.1128 211.287C78.1716 211.198 78.2303 211.109 78.2864 211.018C79.2689 209.435 79.4353 207.37 79.5818 205.55C79.5908 205.437 79.6749 205.357 79.7744 205.365C79.8716 205.375 79.943 205.475 79.9344 205.587C79.7911 207.367 79.6125 209.582 78.5744 211.256C78.5161 211.35 78.4555 211.442 78.3945 211.534C78.2077 211.817 78.0314 212.084 77.9346 212.392C77.6914 213.167 78.002 214.019 78.3018 214.843C78.3633 215.011 78.4238 215.179 78.4799 215.344C79.0035 216.892 79.1097 218.634 78.7783 220.252C78.7589 220.345 78.6861 220.408 78.6061 220.408Z" fill="white"/>
<path d="M87.5585 223.557C87.5366 223.557 87.5137 223.553 87.4918 223.544C87.3929 223.504 87.3433 223.385 87.3798 223.278L88.5607 219.848C89.0058 218.556 89.5595 216.946 89.224 215.448C89.073 214.776 88.7604 214.175 88.4287 213.54C88.2291 213.157 88.0221 212.761 87.8556 212.349C86.9006 209.988 87.2697 207.389 87.8093 204.481C87.8302 204.369 87.9301 204.297 88.0338 204.319C88.137 204.342 88.2038 204.45 88.1833 204.562C87.6564 207.4 87.2946 209.933 88.2047 212.183C88.3635 212.576 88.5651 212.963 88.7604 213.336C89.09 213.968 89.4309 214.622 89.5945 215.351C89.9578 216.972 89.3812 218.647 88.9177 219.993L87.7367 223.423C87.7085 223.506 87.6359 223.557 87.5585 223.557Z" fill="white"/>
<path d="M120.687 82.9155H119.817C119.192 82.9155 118.681 82.3343 118.681 81.6236V75.8109C118.681 75.1002 119.192 74.519 119.817 74.519H120.687C121.312 74.519 121.823 75.1002 121.823 75.8109V81.6236C121.823 82.3343 121.312 82.9155 120.687 82.9155Z" fill="#FF6440"/>
<path d="M124.916 116.154C124.818 116.14 124.723 116.192 124.64 116.248C123.398 117.073 123.014 118.728 122.398 120.119C122.307 120.324 122.203 120.534 122.027 120.665C121.897 120.761 121.74 120.806 121.586 120.85C119.564 121.424 117.542 121.999 115.521 122.573C115.411 123.231 115.301 123.89 115.191 124.548C117.95 123.785 120.686 122.93 123.392 121.983C123.651 121.892 123.921 121.794 124.111 121.59C124.302 121.386 124.388 121.103 124.469 120.831C124.627 120.297 124.785 119.761 124.944 119.226C125.206 118.339 125.469 117.386 125.203 116.5C125.156 116.347 125.069 116.177 124.916 116.154Z" fill="#E3EDFE"/>
<path d="M71.3289 77.5341C70.7552 77.0874 70.0146 76.9101 69.2907 76.8174C67.9916 76.651 66.436 76.3395 65.3112 77.1563C65.0913 79.3826 65.8838 81.5473 67.331 83.2653C69.332 81.8246 71.8957 81.1711 74.3505 81.4753C73.6507 80.5109 72.9509 79.5464 72.2511 78.582C71.9769 78.2047 71.6979 77.8217 71.3289 77.5341Z" fill="#23286B"/>
<path d="M69.4348 93.4111C68.2558 93.33 66.9195 93.2385 65.7452 92.7393C65.0652 92.4501 64.4585 92.0355 63.8716 91.6338L61.4049 89.9471C60.5828 89.3848 59.6505 88.7475 59.0238 87.8796C58.6476 87.3584 58.5472 86.8767 58.7343 86.486C58.9146 86.1094 59.3322 85.8708 59.9745 85.7767C61.5193 85.5506 63.0401 85.9803 64.5118 86.396C65.7687 86.7512 67.0648 87.1183 68.3603 87.0643L68.3781 87.4555C67.0162 87.5145 65.6845 87.1363 64.3952 86.7717C62.9016 86.3495 61.4906 85.9508 60.0361 86.1639C59.6938 86.2144 59.2543 86.339 59.1059 86.6496C58.9413 86.9933 59.1947 87.4284 59.3599 87.658C59.9457 88.4694 60.8086 89.0592 61.6421 89.6294L64.1089 91.3161C64.6796 91.7063 65.2691 92.1095 65.9108 92.3821C67.0198 92.8533 68.2621 92.9389 69.4635 93.0214L69.4348 93.4111Z" fill="#EBF2FE"/>
<path d="M54.592 85.4236C54.4184 89.0055 56.739 92.2552 57.0366 95.8286C57.2642 98.5587 56.219 101.371 54.2742 103.262C52.9791 104.583 59.4475 103.657 61.7479 102.433C64.0483 101.209 68.7596 99.3554 68.3962 98.3138C66.6992 93.666 65.4601 88.8447 64.7031 83.9451C64.3853 81.8894 64.2588 79.4888 65.7245 78.042C64.5289 76.5909 62.2622 76.8036 60.5528 77.5458C57.3985 78.9153 54.7616 81.9301 54.592 85.4236Z" fill="#23286B"/>
<path opacity="0.6" d="M72.2951 79.5122C71.8529 78.5856 69.8432 77.8396 68.4239 77.8437C66.5305 77.8499 64.9331 78.4375 63.7316 79.9093C63.2168 80.5393 62.8256 81.26 62.4467 81.9806C60.4658 85.7468 59.9093 89.4804 58.5806 93.5262C58.2774 94.4503 56.9498 96.7132 56.7371 96.9741C55.5161 98.4744 53.6036 99.532 52.6688 98.7368C51.4919 96.2716 51.4065 93.2943 51.4281 90.5598C52.016 90.3481 52.0814 90.3766 52.6693 90.1654C51.495 89.1864 51.1162 87.4754 51.4039 85.9689C51.6922 84.4624 52.5468 83.1278 53.4945 81.9262C54.0201 81.9159 54.5452 81.9055 55.0708 81.8947C54.5246 80.3711 54.9019 78.5524 56.0092 77.3762C57.3477 75.9541 59.3178 74.9881 61.1654 74.7106C61.4444 74.9928 61.7239 75.2749 62.0029 75.5576C64.9439 73.2357 69.2383 72.8039 72.5783 74.4947C72.6375 76.1741 72.6195 77.8644 72.2951 79.5122Z" fill="#A1C3FC"/>
<path d="M57.2486 109.083C57.3096 112.58 59.2117 116.456 62.6024 117.103C65.4977 117.655 68.3233 115.695 71.2692 115.741C72.2369 115.756 73.2255 115.986 74.1594 115.728C75.6912 115.304 76.6776 113.678 78.2105 113.257C79.2871 112.961 80.4173 113.316 81.5225 113.469C82.6278 113.622 83.9398 113.473 84.5497 112.526C84.8622 112.041 84.9387 111.412 85.3252 110.985C85.9059 110.344 86.9013 110.42 87.7586 110.472C94.2368 110.869 100.724 106.535 102.918 100.344C103.473 98.7782 104.091 97.9192 105.417 96.9383C104.622 94.9188 103.919 91.8424 103.79 89.672C102.574 90.4956 101.015 89.1187 99.5567 89.218C98.2051 89.3098 97.2978 90.6102 96.1686 91.3683C93.3071 93.2901 88.9831 91.6999 86.3523 93.9347C84.8903 95.177 84.3195 97.358 82.6533 98.2988C82.0501 98.6393 81.3595 98.7792 80.6819 98.9144C79.7819 99.0939 78.8818 99.2734 77.9813 99.4529C75.1922 100.009 72.3302 100.566 69.527 100.092C67.9926 99.8325 66.4957 99.266 64.9399 99.275C62.6461 99.2882 60.4643 100.612 59.1184 102.496C57.7721 104.378 57.208 106.758 57.2486 109.083Z" fill="#AFCCFC"/>
<path d="M95.0943 103.207C95.0497 103.207 95.0056 103.192 94.9686 103.16C92.3235 100.904 91.3965 96.7649 92.8126 93.5321C92.8577 93.4286 92.9753 93.3824 93.0751 93.4297C93.175 93.4764 93.219 93.5983 93.1739 93.7017C91.8299 96.7712 92.7102 100.701 95.2215 102.842C95.3061 102.915 95.3183 103.044 95.2489 103.132C95.2083 103.182 95.1516 103.207 95.0943 103.207Z" fill="white"/>
<path d="M77.1554 109.155C76.6635 109.155 76.2462 108.905 75.9445 108.42C74.8157 106.603 75.4782 101.595 77.5232 99.8359C77.6101 99.761 77.7417 99.77 77.8174 99.8576C77.8926 99.9447 77.883 100.075 77.7956 100.151C75.9264 101.758 75.2586 106.526 76.2989 108.202C76.6315 108.737 77.0926 108.872 77.7097 108.616C79.5432 107.852 79.807 105.656 80.0863 103.332C80.2307 102.129 80.38 100.885 80.7642 99.8279C80.8112 99.6994 80.9348 99.3586 81.2135 99.3586C81.2151 99.3586 81.2167 99.3586 81.2178 99.3586C81.5872 99.3634 81.7854 99.9129 82.2379 101.267C82.7533 102.808 83.5315 105.137 84.6955 105.633C84.8016 105.679 84.8506 105.801 84.8053 105.906C84.76 106.011 84.6369 106.06 84.5313 106.015C83.1952 105.446 82.4133 103.106 81.8425 101.398C81.6362 100.781 81.3841 100.028 81.2242 99.8146C81.2066 99.8465 81.1837 99.8948 81.1565 99.9691C80.7888 100.982 80.6422 102.201 80.5004 103.381C80.2195 105.722 79.9285 108.141 77.8707 108.998C77.6197 109.102 77.3798 109.155 77.1554 109.155Z" fill="white"/>
<path d="M58.2358 107.405C58.139 107.405 58.0528 107.34 58.032 107.244C57.5857 105.155 58.913 103.124 60.4271 102.04C62.1098 100.833 64.2287 100.363 66.079 100.061C66.1944 100.043 66.2997 100.117 66.3189 100.227C66.3381 100.337 66.2614 100.441 66.1481 100.46C64.3463 100.753 62.2869 101.209 60.6744 102.365C59.2679 103.373 58.031 105.248 58.4401 107.163C58.4635 107.272 58.3911 107.379 58.2784 107.401C58.264 107.404 58.2496 107.405 58.2358 107.405Z" fill="white"/>
<path d="M101.991 97.2595C101.932 97.2595 101.872 97.2201 101.837 97.1556C101.731 96.9557 101.825 96.7563 101.881 96.6372C101.899 96.5999 101.918 96.5622 101.928 96.5244C101.972 96.3701 101.773 96.1681 101.711 96.1094C101.528 95.9373 101.277 95.7017 101.284 95.3402C101.289 95.0784 101.424 94.8963 101.544 94.7353C101.63 94.6204 101.711 94.5112 101.721 94.4031C101.735 94.2347 101.599 94.1025 101.373 93.9052C101.141 93.7032 100.853 93.4519 100.881 93.039C100.906 92.6775 101.158 92.4807 101.361 92.3223C101.423 92.2745 101.484 92.2268 101.538 92.1748C101.597 92.1187 101.603 92.0872 101.603 92.0872C101.589 92.062 101.5 92.0222 101.448 91.998C101.335 91.9471 101.209 91.8894 101.118 91.764C100.945 91.5258 101.005 91.1675 101.161 90.9597C101.301 90.775 101.493 90.6916 101.648 90.6244C101.736 90.5861 101.833 90.6412 101.865 90.7482C101.897 90.8548 101.851 90.9728 101.763 91.0111C101.637 91.0657 101.496 91.1271 101.413 91.2367C101.354 91.3149 101.335 91.4403 101.374 91.4938C101.408 91.5416 101.489 91.5783 101.568 91.614C101.718 91.6822 101.945 91.7855 101.943 92.0909C101.942 92.2399 101.877 92.3768 101.749 92.498C101.686 92.5573 101.616 92.6124 101.546 92.6675C101.35 92.8202 101.23 92.9235 101.22 93.0726C101.208 93.2426 101.345 93.3748 101.572 93.572C101.805 93.7756 102.096 94.029 102.059 94.4467C102.037 94.6875 101.909 94.8585 101.797 95.0102C101.705 95.1335 101.626 95.24 101.624 95.3491C101.621 95.5044 101.78 95.654 101.92 95.7856C102.213 96.0622 102.331 96.3717 102.25 96.6571C102.233 96.7185 102.205 96.7799 102.177 96.8408C102.158 96.8791 102.131 96.9373 102.129 96.9594C102.18 97.0548 102.154 97.1687 102.075 97.2301C102.049 97.2505 102.02 97.2595 101.991 97.2595Z" fill="white"/>
<path d="M120.838 76.0658L137.88 73.1195V78.0175L120.776 77.8709L120.838 76.0658Z" fill="url(#paint8_linear)"/>
<path d="M120.838 79.5648L137.88 76.6181V81.516L120.776 81.3694L120.838 79.5648Z" fill="url(#paint9_linear)"/>
<path d="M120.601 78.0175C120.89 78.0175 121.125 77.5476 121.125 76.968C121.125 76.3883 120.89 75.9184 120.601 75.9184C120.312 75.9184 120.078 76.3883 120.078 76.968C120.078 77.5476 120.312 78.0175 120.601 78.0175Z" fill="#AFCCFC"/>
<path d="M120.601 81.516C120.89 81.516 121.125 81.0461 121.125 80.4665C121.125 79.8868 120.89 79.4169 120.601 79.4169C120.312 79.4169 120.078 79.8868 120.078 80.4665C120.078 81.0461 120.312 81.516 120.601 81.516Z" fill="#AFCCFC"/>
<path opacity="0.75" d="M66.076 230.904C70.6419 231.802 76.1088 231.329 82.7363 231.456C84.8299 231.496 91.5294 231.033 91.5294 231.033C91.5294 231.033 98.1442 231.614 101.019 235.342C102.865 237.735 99.7164 238.55 97.5992 238.822C83.7908 240.596 77.1312 240.4 64.1562 238.007C62.4186 237.463 64.7002 233.397 66.076 230.904Z" fill="#A1C3FC"/>
<path d="M123.209 117.617C123.264 118.016 123.084 118.406 122.909 118.772C122.346 119.943 121.784 121.114 121.221 122.285C121.072 122.594 120.914 122.916 120.635 123.129C120.373 123.329 120.034 123.41 119.707 123.484C118.667 123.722 117.627 123.96 116.587 124.198C116.942 123.942 117.338 123.738 117.758 123.596C118.11 123.477 118.494 123.393 118.765 123.147C118.962 122.969 119.076 122.725 119.186 122.488C120.038 120.643 120.935 118.745 122.49 117.38C122.596 117.287 122.722 117.191 122.865 117.202C123.065 117.218 123.183 117.428 123.209 117.617Z" fill="#E3EDFE"/>
<path d="M74.6457 159.507C74.6028 159.54 74.5965 159.603 74.6304 159.645C74.6643 159.687 74.7278 159.694 74.7707 159.66C74.8136 159.627 74.82 159.564 74.7861 159.522C74.7516 159.479 74.6891 159.472 74.6457 159.507ZM69.8688 168.435C69.8126 168.429 69.7623 168.469 69.756 168.524C69.7486 168.574 69.784 168.621 69.8349 168.628C69.8391 168.629 69.8439 168.629 69.8481 168.629C69.9016 168.636 69.9509 168.599 69.9588 168.546C69.9641 168.492 69.9244 168.442 69.8688 168.435ZM72.5824 164.067C72.5316 164.045 72.4712 164.063 72.4426 164.11C72.4156 164.16 72.4352 164.222 72.486 164.248C72.5363 164.275 72.5994 164.256 72.6258 164.205C72.6481 164.155 72.6301 164.096 72.5824 164.067ZM63.6074 154.358C63.5168 154.305 63.3998 154.332 63.3437 154.421C63.2865 154.504 63.3082 154.617 63.3918 154.674C63.395 154.676 63.3971 154.678 63.4003 154.679C63.4909 154.732 63.6079 154.705 63.6641 154.616C63.7207 154.53 63.6953 154.414 63.6074 154.358ZM67.5253 156.781C67.4342 156.727 67.3167 156.757 67.2626 156.847C67.2092 156.936 67.2372 157.05 67.3251 157.104C67.4131 157.16 67.5296 157.135 67.5862 157.048C67.6392 156.956 67.6127 156.84 67.5253 156.781ZM71.447 159.211C71.3591 159.156 71.2431 159.181 71.1869 159.268C71.1859 159.27 71.1848 159.272 71.1838 159.273C71.1266 159.357 71.1483 159.47 71.232 159.526C71.2351 159.528 71.2372 159.53 71.2404 159.531C71.3326 159.584 71.4501 159.558 71.5111 159.471C71.5645 159.382 71.5365 159.266 71.447 159.211ZM71.7292 148.788C71.6456 148.851 71.6297 148.969 71.6938 149.051C71.7568 149.134 71.8759 149.15 71.9596 149.086C72.0412 149.025 72.0586 148.91 71.9988 148.828C71.9342 148.745 71.815 148.728 71.7292 148.788ZM74.4127 152.514C74.329 152.576 74.3131 152.694 74.3772 152.776C74.4402 152.859 74.5594 152.875 74.6431 152.812C74.7246 152.75 74.7421 152.635 74.6823 152.553C74.6187 152.47 74.4985 152.453 74.4127 152.514ZM62.3549 163.507C62.2506 163.492 62.1526 163.562 62.1362 163.665C62.1182 163.766 62.1865 163.861 62.2882 163.879C62.2882 163.879 62.2892 163.88 62.2903 163.88C62.3888 163.903 62.4873 163.842 62.5106 163.744C62.5117 163.739 62.5127 163.735 62.5138 163.729C62.5265 163.626 62.4587 163.529 62.3549 163.507ZM66.9189 164.268C66.8141 164.254 66.7161 164.322 66.6939 164.424C66.6785 164.527 66.75 164.624 66.8543 164.64C66.9576 164.657 67.0561 164.588 67.0731 164.486C67.0736 164.485 67.0736 164.483 67.0736 164.483C67.0921 164.382 67.0238 164.287 66.9226 164.269C66.92 164.269 66.9195 164.269 66.9189 164.268ZM71.475 165.027C71.3755 165.008 71.2791 165.072 71.2605 165.17C71.26 165.173 71.2595 165.176 71.2595 165.179C71.2383 165.281 71.305 165.38 71.4078 165.401C71.411 165.401 71.4141 165.402 71.4173 165.403C71.5222 165.419 71.6207 165.349 71.6371 165.246C71.654 165.142 71.5825 165.045 71.4782 165.028C71.4766 165.028 71.4756 165.027 71.475 165.027ZM75.4925 146.285C75.412 146.331 75.3834 146.433 75.429 146.514C75.4751 146.594 75.5794 146.622 75.6609 146.577C75.743 146.531 75.7706 146.428 75.7245 146.348C75.6768 146.268 75.5741 146.24 75.4925 146.285ZM65.0442 159.893C64.9504 159.872 64.8572 159.926 64.8308 160.017C64.8064 160.104 64.8578 160.194 64.9457 160.218C64.9483 160.218 64.9504 160.219 64.9531 160.219C65.0431 160.246 65.1379 160.194 65.1633 160.105C65.1639 160.104 65.1639 160.103 65.1639 160.102C65.1845 160.013 65.1332 159.921 65.0442 159.893ZM69.0225 160.954C68.9319 160.931 68.8408 160.985 68.8175 161.074C68.7932 161.161 68.8445 161.25 68.9325 161.274C68.9351 161.275 68.9372 161.275 68.9399 161.276C69.0299 161.302 69.1247 161.25 69.1507 161.161C69.1512 161.16 69.1512 161.159 69.1512 161.158C69.1708 161.068 69.1141 160.977 69.0225 160.954ZM73.0162 162.013C72.9261 161.987 72.8313 162.039 72.8054 162.128L72.8048 162.131C72.7784 162.215 72.8266 162.304 72.9108 162.33C72.9161 162.331 72.9214 162.333 72.9267 162.334C73.0167 162.36 73.1115 162.308 73.1374 162.219C73.138 162.218 73.138 162.217 73.138 162.216C73.1581 162.127 73.1046 162.038 73.0162 162.013ZM70.8649 153.042C70.7887 152.988 70.6822 153.004 70.6256 153.079C70.5684 153.152 70.5816 153.256 70.6558 153.313C70.7315 153.368 70.8379 153.357 70.8988 153.286C70.9566 153.209 70.9412 153.101 70.8649 153.042ZM74.1378 155.533C74.0679 155.476 73.9647 155.486 73.9075 155.555C73.9053 155.558 73.9032 155.56 73.9011 155.562C73.8439 155.636 73.8572 155.74 73.9313 155.796C74.007 155.852 74.1135 155.84 74.1744 155.77C74.2289 155.694 74.213 155.59 74.1378 155.533ZM66.5159 168.063C66.4269 168.072 66.3634 168.151 66.3724 168.239C66.3729 168.242 66.3729 168.246 66.374 168.249C66.3835 168.341 66.4672 168.408 66.5604 168.398C66.5625 168.398 66.5646 168.398 66.5662 168.397C66.6584 168.382 66.7219 168.297 66.7108 168.205C66.6997 168.114 66.6155 168.05 66.5239 168.061C66.5212 168.062 66.5186 168.063 66.5159 168.063ZM70.6118 167.531C70.5181 167.544 70.4508 167.628 70.4609 167.721C70.4757 167.815 70.5641 167.879 70.6584 167.864C70.7479 167.85 70.8115 167.77 70.8035 167.68C70.795 167.589 70.713 167.521 70.6213 167.53C70.6187 167.53 70.615 167.53 70.6118 167.531ZM71.663 144.176C71.5735 144.115 71.4512 144.133 71.3845 144.219C71.3193 144.305 71.3358 144.426 71.4215 144.492C71.511 144.554 71.6344 144.535 71.7001 144.449C71.7653 144.363 71.7488 144.241 71.663 144.176ZM75.4703 147.012C75.3834 146.947 75.2606 146.964 75.1944 147.049C75.1287 147.133 75.1457 147.256 75.2314 147.321C75.3183 147.387 75.4412 147.37 75.5074 147.285C75.5736 147.199 75.5566 147.077 75.4703 147.012ZM66.509 163.349C66.3999 163.367 66.3247 163.466 66.338 163.575C66.357 163.682 66.4603 163.753 66.5689 163.734C66.6737 163.716 66.7447 163.619 66.7315 163.516C66.714 163.41 66.6165 163.337 66.509 163.349ZM71.2277 162.69C71.1213 162.707 71.0466 162.803 71.0588 162.909C71.0736 163.016 71.1726 163.091 71.2807 163.076C71.3887 163.061 71.4644 162.963 71.4496 162.857C71.4337 162.751 71.3347 162.677 71.2277 162.69ZM69.4101 153.487C69.3042 153.466 69.1994 153.528 69.1676 153.63C69.1443 153.734 69.2094 153.838 69.3143 153.863C69.417 153.892 69.5245 153.833 69.5531 153.73C69.5531 153.73 69.5537 153.728 69.5542 153.726C69.5817 153.621 69.5177 153.515 69.4101 153.487C69.4107 153.487 69.4101 153.487 69.4101 153.487ZM74.0298 154.665C73.9228 154.639 73.8148 154.703 73.7872 154.807V154.808C73.7613 154.909 73.8238 155.014 73.9271 155.039C74.0319 155.065 74.1389 155.004 74.1659 154.901C74.194 154.799 74.1325 154.694 74.0298 154.665ZM69.4144 150.255C69.3106 150.227 69.2031 150.288 69.1745 150.391C69.1459 150.494 69.2078 150.6 69.3122 150.628C69.4133 150.655 69.5187 150.598 69.55 150.499C69.5807 150.394 69.5198 150.285 69.4144 150.255ZM73.9599 151.615C73.8545 151.585 73.7443 151.644 73.7136 151.749C73.6856 151.85 73.7422 151.956 73.8429 151.99C73.9493 152.019 74.0595 151.961 74.096 151.859C74.123 151.754 74.0632 151.647 73.9599 151.615ZM70.8379 159.97C70.7294 159.983 70.651 160.08 70.6621 160.187C70.6738 160.292 70.7691 160.369 70.8755 160.358C70.9809 160.351 71.062 160.262 71.0556 160.158C71.0556 160.155 71.0556 160.152 71.0545 160.149C71.0471 160.042 70.9523 159.961 70.8438 159.969C70.8422 159.969 70.8401 159.969 70.8379 159.97Z" fill="white"/>
</g>
<defs>
<linearGradient id="paint0_linear" x1="204.725" y1="169.329" x2="204.725" y2="2.09914" gradientUnits="userSpaceOnUse">
<stop stop-color="white"/>
<stop offset="0.5108" stop-color="#EFEFEF"/>
<stop offset="1" stop-color="white"/>
</linearGradient>
<linearGradient id="paint1_linear" x1="96.167" y1="167.23" x2="96.167" y2="0" gradientUnits="userSpaceOnUse">
<stop stop-color="white"/>
<stop offset="0.5108" stop-color="#EFEFEF"/>
<stop offset="1" stop-color="white"/>
</linearGradient>
<linearGradient id="paint2_linear" x1="113.445" y1="190.671" x2="113.445" y2="139.408" gradientUnits="userSpaceOnUse">
<stop stop-color="white"/>
<stop offset="0.5108" stop-color="#EFEFEF"/>
<stop offset="1" stop-color="white"/>
</linearGradient>
<linearGradient id="paint3_linear" x1="188.714" y1="233.03" x2="194.838" y2="204.882" gradientUnits="userSpaceOnUse">
<stop stop-color="#3E8AF8"/>
<stop offset="1" stop-color="#1479F2"/>
</linearGradient>
<linearGradient id="paint4_linear" x1="152.313" y1="244.199" x2="164.171" y2="208.915" gradientUnits="userSpaceOnUse">
<stop stop-color="#3E8AF8"/>
<stop offset="1" stop-color="#1479F2"/>
</linearGradient>
<linearGradient id="paint5_linear" x1="167.089" y1="227.869" x2="177.537" y2="180.091" gradientUnits="userSpaceOnUse">
<stop stop-color="#A1C3FC"/>
<stop offset="0.6955" stop-color="#81AEF2"/>
<stop offset="1" stop-color="#78A9EF"/>
</linearGradient>
<linearGradient id="paint6_linear" x1="117.359" y1="119.168" x2="125.723" y2="117.414" gradientUnits="userSpaceOnUse">
<stop stop-color="#E3EDFE"/>
<stop offset="1" stop-color="#D0E1FD"/>
</linearGradient>
<linearGradient id="paint7_linear" x1="96.558" y1="231.303" x2="65.1962" y2="241.069" gradientUnits="userSpaceOnUse">
<stop stop-color="#23286B"/>
<stop offset="1" stop-color="#151A4F"/>
</linearGradient>
<linearGradient id="paint8_linear" x1="120.776" y1="75.5685" x2="137.88" y2="75.5685" gradientUnits="userSpaceOnUse">
<stop stop-color="#A1C3FC" stop-opacity="0.6"/>
<stop offset="0.5161" stop-color="#A1C3FC" stop-opacity="0"/>
</linearGradient>
<linearGradient id="paint9_linear" x1="120.776" y1="79.0671" x2="137.88" y2="79.0671" gradientUnits="userSpaceOnUse">
<stop stop-color="#A1C3FC" stop-opacity="0.6"/>
<stop offset="0.5161" stop-color="#A1C3FC" stop-opacity="0"/>
</linearGradient>
<clipPath id="clip0">
<rect width="226.891" height="240" fill="white"/>
</clipPath>
</defs>
</svg>
